
<svg width="297" height="180" viewBox="0 0 297 180" fill="none" xmlns="http://www.w3.org/2000/svg">
<path d="M292.85 0H4.1497C3.04951 0.00107663 1.99472 0.387012 1.21676 1.07312C0.438808 1.75924 0.00122075 2.68949 0 3.6598V176.193C0.00122232 177.163 0.438827 178.094 1.21678 178.78C1.99474 179.466 3.04951 179.852 4.1497 179.853H292.85C293.951 179.852 295.005 179.466 295.783 178.78C296.561 178.094 296.999 177.163 297 176.193V3.6598C296.999 2.68949 296.561 1.75924 295.783 1.07312C295.005 0.387012 293.951 0.00107663 292.85 0V0ZM295.814 176.193C295.814 176.886 295.502 177.551 294.946 178.041C294.39 178.531 293.636 178.807 292.85 178.807H4.1497C3.36368 178.807 2.60994 178.531 2.05414 178.041C1.49833 177.551 1.18594 176.886 1.18563 176.193V3.6598C1.18594 2.96657 1.49833 2.30182 2.05414 1.81163C2.60994 1.32144 3.36368 1.04593 4.1497 1.04566H292.85C293.636 1.04593 294.39 1.32144 294.946 1.81163C295.502 2.30182 295.814 2.96657 295.814 3.6598V176.193Z" fill="#3F3D56"/>
<path d="M296.407 14.6606H0.592773V15.7063H296.407V14.6606Z" fill="#3F3D56"/>
<path d="M10.6716 10.98C12.636 10.98 14.2285 9.57552 14.2285 7.84302C14.2285 6.11052 12.636 4.70605 10.6716 4.70605C8.70722 4.70605 7.11475 6.11052 7.11475 7.84302C7.11475 9.57552 8.70722 10.98 10.6716 10.98Z" fill="#3F3D56"/>
<path d="M20.8972 10.98C22.8616 10.98 24.4541 9.57552 24.4541 7.84302C24.4541 6.11052 22.8616 4.70605 20.8972 4.70605C18.9328 4.70605 17.3403 6.11052 17.3403 7.84302C17.3403 9.57552 18.9328 10.98 20.8972 10.98Z" fill="#3F3D56"/>
<path d="M31.1228 10.98C33.0872 10.98 34.6797 9.57552 34.6797 7.84302C34.6797 6.11052 33.0872 4.70605 31.1228 4.70605C29.1584 4.70605 27.5659 6.11052 27.5659 7.84302C27.5659 9.57552 29.1584 10.98 31.1228 10.98Z" fill="#3F3D56"/>
<path d="M72.8387 38.9509H23.0423C21.9417 38.9509 20.8862 38.5654 20.108 37.879C19.3298 37.1927 18.8926 36.2618 18.8926 35.2911C18.8926 34.3205 19.3298 33.3896 20.108 32.7033C20.8862 32.0169 21.9417 31.6313 23.0423 31.6313H72.8387C73.9392 31.6313 74.9947 32.0169 75.773 32.7033C76.5512 33.3896 76.9884 34.3205 76.9884 35.2911C76.9884 36.2618 76.5512 37.1927 75.773 37.879C74.9947 38.5654 73.9392 38.9509 72.8387 38.9509Z" fill="#CCCCCC"/>
<path d="M141.012 56.7276H23.0423C21.9417 56.7276 20.8862 56.342 20.108 55.6556C19.3298 54.9693 18.8926 54.0384 18.8926 53.0678C18.8926 52.0971 19.3298 51.1662 20.108 50.4799C20.8862 49.7935 21.9417 49.408 23.0423 49.408H141.012C142.113 49.408 143.168 49.7935 143.947 50.4799C144.725 51.1662 145.162 52.0971 145.162 53.0678C145.162 54.0384 144.725 54.9693 143.947 55.6556C143.168 56.342 142.113 56.7276 141.012 56.7276Z" fill="#CCCCCC"/>
<path d="M179.083 63.7974C173.525 70.943 170.286 79.2914 169.715 87.9416C169.143 96.5918 171.261 105.215 175.84 112.882C180.418 120.548 187.284 126.967 195.695 131.444C204.107 135.921 213.745 138.288 223.57 138.288V96.7549L179.083 63.7974Z" fill="#6C63FF"/>
<path d="M223.569 43.1338C214.808 43.1289 206.177 45.0082 198.425 48.6089C190.673 52.2096 184.034 57.423 179.082 63.7975L223.569 96.755V43.1338Z" fill="#CCCCCC"/>
<path d="M223.569 138.811H222.976V42.6108H223.569C238.034 42.6108 251.906 47.6785 262.134 56.699C272.362 65.7196 278.108 77.9541 278.108 90.711C278.108 103.468 272.362 115.702 262.134 124.723C251.906 133.743 238.034 138.811 223.569 138.811ZM224.162 43.6593V137.763C238.208 137.625 251.627 132.607 261.504 123.798C271.382 114.989 276.922 103.1 276.922 90.711C276.922 78.3219 271.382 66.4328 261.504 57.6238C251.627 48.8149 238.208 43.797 224.162 43.6593V43.6593Z" fill="#3F3D56"/>
<path d="M57.4257 158.417H47.3478C46.6406 158.417 45.9625 158.168 45.4624 157.727C44.9623 157.286 44.681 156.688 44.6802 156.065V130.446C44.681 129.822 44.9623 129.224 45.4624 128.783C45.9625 128.342 46.6406 128.094 47.3478 128.093H57.4257C58.1329 128.094 58.811 128.342 59.3112 128.783C59.8113 129.224 60.0926 129.822 60.0933 130.446V156.065C60.0926 156.688 59.8112 157.286 59.3111 157.727C58.811 158.168 58.1329 158.417 57.4257 158.417V158.417Z" fill="#CCCCCC"/>
<path d="M87.0658 158.417H76.988C76.2807 158.416 75.6027 158.168 75.1025 157.727C74.6024 157.286 74.3211 156.688 74.3203 156.064V118.421C74.3211 117.797 74.6024 117.199 75.1025 116.758C75.6027 116.317 76.2807 116.069 76.988 116.068H87.0658C87.7731 116.069 88.4512 116.317 88.9513 116.758C89.4514 117.199 89.7327 117.797 89.7335 118.421V156.064C89.7327 156.688 89.4514 157.286 88.9513 157.727C88.4511 158.168 87.7731 158.416 87.0658 158.417V158.417Z" fill="#FF6584"/>
<path d="M116.706 158.417H106.629C105.921 158.417 105.243 158.169 104.743 157.728C104.243 157.286 103.962 156.688 103.961 156.065V107.965C103.962 107.341 104.243 106.743 104.743 106.302C105.243 105.861 105.921 105.613 106.629 105.612H116.706C117.414 105.613 118.092 105.861 118.592 106.302C119.092 106.743 119.373 107.341 119.374 107.965V156.065C119.373 156.688 119.092 157.286 118.592 157.728C118.092 158.169 117.414 158.417 116.706 158.417V158.417Z" fill="#6C63FF"/>
<path d="M57.4247 158.678H47.3469C46.561 158.677 45.8077 158.402 45.252 157.912C44.6963 157.421 44.3837 156.757 44.3828 156.064V98.5529C44.3837 97.8598 44.6963 97.1953 45.252 96.7053C45.8077 96.2152 46.561 95.9395 47.3469 95.9387H57.4247C58.2106 95.9395 58.964 96.2152 59.5197 96.7053C60.0753 97.1953 60.3879 97.8598 60.3888 98.5529V156.064C60.3879 156.757 60.0753 157.421 59.5197 157.912C58.964 158.402 58.2106 158.677 57.4247 158.678V158.678ZM47.3469 96.9844C46.8754 96.9848 46.4233 97.1502 46.0899 97.4443C45.7565 97.7383 45.569 98.137 45.5684 98.5529V156.064C45.569 156.48 45.7565 156.878 46.0899 157.173C46.4233 157.467 46.8754 157.632 47.3469 157.632H57.4247C57.8962 157.632 58.3483 157.467 58.6817 157.173C59.0151 156.878 59.2027 156.48 59.2032 156.064V98.5529C59.2027 98.137 59.0151 97.7383 58.6817 97.4443C58.3483 97.1502 57.8962 96.9848 57.4247 96.9844H47.3469Z" fill="#3F3D56"/>
<path d="M87.0658 158.678H76.988C76.2022 158.677 75.4488 158.402 74.8931 157.912C74.3374 157.421 74.0248 156.757 74.0239 156.064V98.5529C74.0248 97.8598 74.3374 97.1953 74.8931 96.7053C75.4488 96.2152 76.2022 95.9395 76.988 95.9387H87.0658C87.8517 95.9395 88.6051 96.2152 89.1608 96.7053C89.7165 97.1953 90.029 97.8598 90.0299 98.5529V156.064C90.029 156.757 89.7165 157.421 89.1608 157.912C88.6051 158.402 87.8517 158.677 87.0658 158.678V158.678ZM76.988 96.9844C76.5165 96.9848 76.0644 97.1502 75.731 97.4443C75.3976 97.7383 75.2101 98.137 75.2096 98.5529V156.064C75.2101 156.48 75.3976 156.878 75.731 157.173C76.0644 157.467 76.5165 157.632 76.988 157.632H87.0658C87.5374 157.632 87.9894 157.467 88.3228 157.173C88.6562 156.878 88.8438 156.48 88.8443 156.064V98.5529C88.8438 98.137 88.6562 97.7383 88.3228 97.4443C87.9894 97.1502 87.5374 96.9848 87.0658 96.9844H76.988Z" fill="#3F3D56"/>
<path d="M116.706 158.678H106.628C105.842 158.677 105.089 158.402 104.533 157.912C103.978 157.421 103.665 156.757 103.664 156.064V98.5529C103.665 97.8598 103.978 97.1953 104.533 96.7053C105.089 96.2152 105.842 95.9395 106.628 95.9387H116.706C117.492 95.9395 118.245 96.2152 118.801 96.7053C119.357 97.1953 119.669 97.8598 119.67 98.5529V156.064C119.669 156.757 119.357 157.421 118.801 157.912C118.245 158.402 117.492 158.677 116.706 158.678V158.678ZM106.628 96.9844C106.157 96.9848 105.705 97.1502 105.371 97.4443C105.038 97.7383 104.85 98.137 104.85 98.5529V156.064C104.85 156.48 105.038 156.878 105.371 157.173C105.705 157.467 106.157 157.632 106.628 157.632H116.706C117.177 157.632 117.63 157.467 117.963 157.173C118.296 156.878 118.484 156.48 118.484 156.064V98.5529C118.484 98.137 118.296 97.7383 117.963 97.4443C117.63 97.1502 117.177 96.9848 116.706 96.9844H106.628Z" fill="#3F3D56"/>
</svg>
