
<svg width="406" height="220" viewBox="0 0 406 220" fill="none" xmlns="http://www.w3.org/2000/svg">
<path d="M145.197 0V112.016H406V0H145.197ZM146.133 111.12V0.89613H210.281V111.12H146.133ZM211.217 0.89613H285.197V111.12H211.217V0.89613ZM405.064 111.12H286.134V0.89613H405.064V111.12Z" fill="#3F3D56"/>
<path d="M174.871 54.7729H157.128C159.124 46.9375 161.041 39.6223 157.128 34.3984H174.871C178.211 41.1971 178.211 47.9885 174.871 54.7729Z" fill="#6C63FF"/>
<path d="M264.071 93.0591H246.328C245.218 83.6141 247.667 76.5742 246.328 72.6846H264.071C263.389 79.4604 263.389 86.2832 264.071 93.0591V93.0591Z" fill="#E6E6E6"/>
<path d="M242.393 63.3804H224.65C225.315 55.5462 227.46 48.2307 224.65 43.0059H242.393C245.733 49.7973 245.733 56.5888 242.393 63.3804Z" fill="#6C63FF"/>
<path d="M257.72 50.0566H275.463C276.573 42.221 274.124 34.9058 275.463 29.6821H257.72C254.38 36.4736 254.38 43.2651 257.72 50.0566Z" fill="#FF6584"/>
<path d="M175.413 86.7964H193.156C194.266 78.9608 191.817 71.6456 193.156 66.4219H175.413C172.073 73.2134 172.073 80.0049 175.413 86.7964Z" fill="#E6E6E6"/>
<path d="M188.742 9.61377H162.57V10.5099H188.742V9.61377Z" fill="#3F3D56"/>
<path d="M260.849 9.61377H234.677V10.5099H260.849V9.61377Z" fill="#3F3D56"/>
<path d="M358.709 9.61377H332.537V10.5099H358.709V9.61377Z" fill="#3F3D56"/>
<path d="M0 154.803V156.029C0.00184369 158.06 0.846108 160.009 2.34746 161.445C3.84881 162.882 5.88455 163.69 8.00778 163.692H75.9138C78.0373 163.691 80.0737 162.883 81.5753 161.446C83.0768 160.009 83.9208 158.061 83.9215 156.029V154.803C83.9255 153.009 83.2675 151.272 82.0635 149.898C81.6628 149.442 81.2094 149.031 80.7119 148.672H45.4904C45.0657 148.672 44.6585 148.511 44.3582 148.223C44.0579 147.936 43.8891 147.546 43.8889 147.14H8.00778C5.88489 147.142 3.84978 147.951 2.34867 149.387C0.847552 150.824 0.00293576 152.771 0 154.803V154.803Z" fill="#CCCCCC"/>
<path d="M37.4795 219.787H45.8076L45.8076 163.387H37.4795L37.4795 219.787Z" fill="#CCCCCC"/>
<path d="M13.7764 219.506C13.7764 220.367 26.3963 219.839 41.9638 219.839C57.5312 219.839 70.1511 220.367 70.1511 219.506C70.1511 218.645 57.5312 211.817 41.9638 211.817C26.3963 211.817 13.7764 218.645 13.7764 219.506Z" fill="#CCCCCC"/>
<path d="M84.3652 212.607L92.3209 212.607L96.1055 183.242L84.3638 183.242L84.3652 212.607Z" fill="#A0616A"/>
<path d="M82.3359 210.121L98.0035 210.121H98.0042C100.652 210.121 103.192 211.127 105.064 212.919C106.937 214.711 107.989 217.141 107.989 219.675V219.986L82.3364 219.986L82.3359 210.121Z" fill="#2F2E41"/>
<path d="M53.5693 197.011L47.1237 201.474L26.0684 179.807L35.5814 173.221L53.5693 197.011Z" fill="#A0616A"/>
<path d="M59.7335 201.851L38.9508 216.241L38.7606 215.99C37.2084 213.937 36.572 211.378 36.9912 208.876C37.4105 206.374 38.8512 204.134 40.9964 202.648L40.9969 202.648L53.6903 193.859L59.7335 201.851Z" fill="#2F2E41"/>
<path d="M62.2764 82.8646C62.2764 82.8646 53.9295 76.8818 44.9043 82.8646L38.6577 132.721H57.4137L60.1924 116.767L66.4444 92.8359L62.2764 82.8646Z" fill="#CCCCCC"/>
<path d="M81.0667 159.864L47.4046 149.345L31.3572 161.531L48.4049 186.471L39.4884 197.661L39.2334 197.383C38.1272 196.178 12.1412 167.76 12.2165 159.7C12.2911 151.708 15.0583 143.674 15.0863 143.593L23.5276 132.127L35.5082 128.756L75.172 134.083L75.2367 134.092L91.2622 143.426C92.848 144.401 94.1847 145.704 95.1738 147.239C96.1629 148.775 96.7791 150.503 96.9769 152.297C97.6651 158.224 99.0489 205.689 99.0628 206.168L99.0719 206.479H81.7627L81.0667 159.864Z" fill="#2F2E41"/>
<path d="M59.7168 147.955C53.8662 145.466 46.3944 135.751 45.1629 134.113C42.7556 135.367 25.1995 144.345 20.2503 142.037C19.5313 142.417 16.282 144.272 15.6967 147.072L15.5499 147.774L15.1257 147.184C15.0476 147.075 7.42252 136.226 17.2867 129.483C26.2808 123.335 28.7005 117.125 28.954 116.414L24.0738 91.7305L24.2019 91.6167C24.6021 91.2611 34.1025 82.8964 42.771 81.9015L48.1183 80.9995L48.3522 100.48V125.419C52.6729 124.9 59.5083 81.3237 59.5083 81.3237L63.0802 82.5762C64.0031 82.7456 74.3752 84.7282 77.1278 88.6792L77.2172 88.8075L67.7833 113.215L65.0242 117.191V122.279L81.1429 135.692L80.914 135.921C80.3647 136.472 68.4789 148.302 61.555 148.3C60.9237 148.31 60.2973 148.192 59.7168 147.955V147.955Z" fill="#3F3D56"/>
<path d="M67.2087 68.2829C71.3255 61.0762 68.5578 52.0404 61.0268 48.1009C53.4958 44.1614 44.0534 46.8099 39.9366 54.0166C35.8198 61.2233 38.5875 70.2591 46.1185 74.1986C53.6495 78.1381 63.0919 75.4896 67.2087 68.2829Z" fill="#A0616A"/>
<path d="M49.6596 152.384C49.771 151.539 50.0744 150.728 50.5487 150.008C51.0229 149.288 51.6564 148.676 52.4046 148.215C53.1527 147.755 53.9972 147.457 54.8787 147.342C55.7602 147.228 56.6572 147.3 57.5066 147.553L66.4138 137.335L74.2228 141L61.4322 155.261C60.8932 156.598 59.8603 157.7 58.5293 158.357C57.1982 159.014 55.6615 159.181 54.2104 158.826C52.7593 158.471 51.4945 157.62 50.6557 156.432C49.817 155.245 49.4626 153.804 49.6596 152.384V152.384Z" fill="#A0616A"/>
<path d="M55.9556 143.719L69.9294 125.667L66.4681 107.781L72.0835 87.6297L72.2249 87.5717C72.3381 87.525 75.0258 86.4415 77.0715 87.2536C77.4899 87.4189 77.868 87.6654 78.1819 87.9775C78.4958 88.2896 78.7387 88.6606 78.8953 89.0671C80.2855 92.3931 83.6372 126.266 83.779 127.765C83.7504 128.039 83.0624 134.499 81.6631 137.177C80.2704 139.843 67.5668 153.292 67.0268 153.864L66.8036 154.1L55.9556 143.719Z" fill="#3F3D56"/>
<path d="M66.9222 57.3221C61.7492 63.5478 52.8832 62.407 45.7893 60.1288C46.202 65.1128 44.7877 70.0787 41.7896 74.1731C42.7057 70.6417 38.8465 69.939 36.5945 68.6257C35.7275 67.5755 36.4478 66.008 36.0919 64.7138C32.0483 60.1771 29.3689 56.7544 34.5594 51.4307C37.5978 47.5386 41.2448 42.6791 47.0339 43.7015C51.6146 38.5879 59.1214 39.9178 64.2432 43.4948C66.5459 45.1252 68.6405 47.0088 70.484 49.1068C69.8946 51.8675 68.797 54.506 67.2423 56.8991" fill="#2F2E41"/>
<path d="M62.7902 160.577H45.0474C45.7126 152.742 47.8577 145.427 45.0474 140.202H62.7902C66.1308 146.994 66.1308 153.785 62.7902 160.577Z" fill="#6C63FF"/>
<path d="M55.0378 156.731C54.9264 155.886 54.623 155.075 54.1487 154.355C53.6745 153.635 53.041 153.023 52.2928 152.562C51.5447 152.102 50.7001 151.804 49.8186 151.689C48.9371 151.575 48.0401 151.647 47.1908 151.9L38.2836 141.682L30.4746 145.348L43.2652 159.608C43.8042 160.945 44.8371 162.047 46.1681 162.704C47.4992 163.361 49.0358 163.528 50.487 163.173C51.9381 162.819 53.2029 161.967 54.0416 160.779C54.8804 159.592 55.2348 158.151 55.0378 156.731V156.731Z" fill="#A0616A"/>
<path d="M37.7735 154.9C36.9768 154.328 18.239 140.851 16.1456 136.845C14.049 132.832 14.5687 120.949 14.5959 120.409C14.6285 120.222 17.8907 101.651 20.6501 95.0501C23.5131 88.2009 30.7144 90.865 30.7869 90.8928L31.0045 90.9761L27.8688 125.984L44.9726 147.696L38.0043 155.066L37.7735 154.9Z" fill="#3F3D56"/>
</svg>
