
<svg width="272" height="192" viewBox="0 0 272 192" fill="none" xmlns="http://www.w3.org/2000/svg">
<path d="M253.868 185.046C254.868 183.387 253.735 181.354 252.442 179.873C251.149 178.391 249.572 176.861 249.606 174.967C249.652 172.257 252.835 170.658 255.381 169.221C257.267 168.154 259.006 166.89 260.564 165.454C261.217 164.902 261.758 164.249 262.16 163.527C262.683 162.467 262.67 161.262 262.636 160.1C262.525 156.233 262.314 152.37 262.003 148.512" stroke="#3F3D56" stroke-width="4" stroke-miterlimit="10"/>
<path d="M266.839 148.307C266.801 147.6 266.568 146.912 266.161 146.307C265.753 145.702 265.184 145.199 264.506 144.844L263.459 146.717L263.489 144.453C262.774 144.259 262.017 144.223 261.283 144.349C260.548 144.474 259.858 144.758 259.27 145.174C258.683 145.591 258.214 146.129 257.904 146.744C257.594 147.358 257.453 148.031 257.49 148.705C257.549 149.823 258.096 150.874 259.012 151.628C259.466 152.001 259.997 152.289 260.574 152.477C261.151 152.665 261.763 152.748 262.376 152.722C262.989 152.696 263.59 152.561 264.145 152.325C264.7 152.089 265.198 151.757 265.611 151.347C266.024 150.937 266.343 150.457 266.551 149.936C266.759 149.414 266.851 148.861 266.822 148.307H266.839Z" fill="#57B793"/>
<path d="M258.497 176.916C258.008 177.775 257.206 178.457 256.226 178.846C255.246 179.235 254.149 179.308 253.116 179.052C252.084 178.797 251.181 178.229 250.557 177.443C249.934 176.657 249.628 175.702 249.691 174.736C249.755 173.771 250.183 172.855 250.905 172.141C251.627 171.428 252.599 170.96 253.657 170.817C254.715 170.673 255.796 170.863 256.718 171.354C257.64 171.845 258.347 172.607 258.721 173.513L255.801 175.66L259.014 174.985C259.014 175.657 258.837 176.319 258.497 176.916V176.916Z" fill="#57B793"/>
<path d="M256.188 168.698C255.574 168.724 254.96 168.641 254.382 168.453C253.804 168.265 253.273 167.976 252.819 167.602C252.365 167.228 251.997 166.776 251.737 166.273C251.477 165.77 251.329 165.226 251.302 164.671C251.265 164.01 251.403 163.35 251.705 162.747C251.985 162.182 252.399 161.68 252.917 161.275C253.435 160.87 254.045 160.573 254.705 160.404L254.681 162.148L255.741 160.251C256.981 160.198 258.193 160.593 259.11 161.348C260.028 162.103 260.576 163.157 260.633 164.277C260.691 165.397 260.254 166.492 259.419 167.321C258.583 168.15 257.417 168.645 256.178 168.698H256.188Z" fill="#57B793"/>
<path d="M267.542 161.858C266.304 161.911 265.094 161.518 264.178 160.764C263.262 160.011 262.714 158.959 262.656 157.841C262.598 156.723 263.033 155.63 263.867 154.802C264.701 153.974 265.864 153.479 267.102 153.426C267.977 153.387 268.846 153.573 269.608 153.963L268.782 156.01L270.481 154.535C271.393 155.288 271.938 156.337 271.994 157.453C272.016 157.843 271.975 158.235 271.874 158.615C271.641 159.508 271.092 160.308 270.31 160.893C269.528 161.479 268.556 161.817 267.542 161.858V161.858Z" fill="#57B793"/>
<path opacity="0.1" d="M266.209 149.422C265.129 149.53 264.079 149.834 262.996 149.895C261.913 149.955 260.723 149.72 260.036 148.958C259.667 148.548 259.483 148.031 259.17 147.585C258.875 147.168 258.471 146.824 257.993 146.582C257.711 147.115 257.556 147.696 257.538 148.286C257.521 148.877 257.64 149.465 257.89 150.011C258.14 150.557 258.513 151.05 258.987 151.457C259.461 151.864 260.025 152.177 260.641 152.374C261.257 152.572 261.912 152.651 262.564 152.605C263.216 152.559 263.85 152.39 264.425 152.108C265 151.827 265.503 151.439 265.902 150.971C266.3 150.502 266.585 149.963 266.739 149.389C266.559 149.395 266.382 149.407 266.209 149.422Z" fill="black"/>
<path opacity="0.1" d="M267.542 161.859C266.735 161.896 265.932 161.743 265.21 161.416C264.488 161.088 263.873 160.596 263.425 159.989C262.976 159.382 262.71 158.68 262.652 157.953C262.594 157.225 262.746 156.495 263.093 155.836C263.464 156.063 263.783 156.352 264.033 156.689C264.366 157.143 264.566 157.667 264.959 158.086C265.686 158.86 266.932 159.113 268.062 159.065C269.192 159.016 270.278 158.73 271.395 158.637C271.548 158.637 271.708 158.613 271.864 158.61C271.633 159.503 271.086 160.303 270.306 160.889C269.526 161.475 268.555 161.816 267.542 161.859Z" fill="black"/>
<path opacity="0.1" d="M256.188 168.698C255.574 168.725 254.96 168.642 254.382 168.454C253.804 168.266 253.273 167.976 252.819 167.602C252.365 167.228 251.997 166.777 251.737 166.274C251.477 165.771 251.329 165.226 251.302 164.672C251.265 164.011 251.403 163.351 251.705 162.748C252.093 162.977 252.432 163.268 252.705 163.606C253.068 164.07 253.295 164.603 253.705 165.03C254.495 165.825 255.821 166.105 257.017 166.078C258.214 166.051 259.29 165.798 260.443 165.72C260.159 166.551 259.598 167.283 258.836 167.816C258.075 168.349 257.15 168.657 256.188 168.698Z" fill="black"/>
<path opacity="0.1" d="M258.497 176.916C258.245 177.422 257.886 177.879 257.439 178.259C256.992 178.639 256.467 178.937 255.893 179.134C255.319 179.331 254.708 179.424 254.094 179.407C253.48 179.391 252.876 179.265 252.316 179.038C251.756 178.81 251.251 178.486 250.83 178.082C250.409 177.678 250.08 177.203 249.862 176.685C249.644 176.166 249.541 175.614 249.56 175.059C249.578 174.505 249.717 173.959 249.968 173.453C250.352 173.684 250.698 173.963 250.995 174.281C251.438 174.772 251.731 175.326 252.248 175.787C253.204 176.633 254.748 176.992 256.121 177.016C256.914 177.025 257.708 176.992 258.497 176.916V176.916Z" fill="black"/>
<path d="M44.2127 175.757C41.7932 171.709 44.546 166.752 47.6921 163.145C50.8382 159.537 54.6908 155.785 54.6075 151.186C54.4875 144.579 46.7289 140.679 40.5301 137.177C35.9302 134.578 31.687 131.496 27.889 127.995C26.366 126.589 24.8896 125.089 24.0031 123.295C22.7233 120.711 22.7566 117.775 22.8399 114.944C23.1066 105.508 23.622 96.0903 24.3863 86.6907" stroke="#3F3D56" stroke-width="4" stroke-miterlimit="10"/>
<path d="M12.5985 86.1756C12.6898 84.4518 13.2588 82.7764 14.2534 81.3031C15.248 79.8298 16.6363 78.6058 18.2908 77.7437L20.8437 82.306L20.767 76.783C23.0862 76.1655 25.5626 76.23 27.8387 76.9671C30.1147 77.7043 32.0725 79.076 33.4295 80.8842C34.7865 82.6924 35.4724 84.8435 35.3882 87.0269C35.304 89.2103 34.454 91.313 32.961 93.0314C31.4679 94.7498 29.4091 95.995 27.0818 96.5872C24.7545 97.1794 22.2792 97.0879 20.0132 96.326C17.7471 95.564 15.8077 94.1711 14.475 92.3483C13.1422 90.5254 12.4851 88.367 12.5985 86.1847V86.1756Z" fill="#57B793"/>
<path d="M32.9346 155.908C34.0811 157.927 35.9334 159.547 38.2038 160.517C40.4742 161.487 43.0355 161.752 45.4899 161.272C47.9442 160.791 50.1542 159.591 51.7764 157.859C53.3986 156.127 54.3422 153.959 54.4607 151.692C54.5403 150.267 54.2871 148.843 53.7175 147.512C52.8848 145.56 51.4145 143.884 49.502 142.705C47.5894 141.526 45.3252 140.902 43.0102 140.914C40.6952 140.926 38.4391 141.574 36.5418 142.773C34.6444 143.971 33.1957 145.663 32.388 147.624L39.5101 152.857L31.6748 151.21C31.6716 152.845 32.1037 154.456 32.9346 155.908Z" fill="#57B793"/>
<path d="M38.5636 135.906C41.3597 136.021 44.105 135.204 46.2771 133.609C48.4492 132.014 49.8964 129.753 50.343 127.256C50.7897 124.759 50.2047 122.201 48.6993 120.069C47.194 117.937 44.8735 116.38 42.1796 115.693L42.2396 119.936L39.6734 115.32H39.6434C36.6219 115.192 33.668 116.155 31.4317 117.995C29.1955 119.836 27.8599 122.404 27.7189 125.134C27.578 127.864 28.6431 130.533 30.68 132.554C32.7169 134.575 35.5587 135.782 38.5803 135.909L38.5636 135.906Z" fill="#57B793"/>
<path d="M10.882 119.262C12.6474 119.34 14.4086 119.045 16.0267 118.403C17.6448 117.76 19.0753 116.786 20.2055 115.558C21.3357 114.33 22.1345 112.882 22.539 111.327C22.9434 109.772 22.9424 108.154 22.536 106.6C22.1296 105.045 21.329 103.598 20.1973 102.371C19.0656 101.144 17.6338 100.172 16.015 99.5305C14.3961 98.8894 12.6345 98.5971 10.8692 98.6766C9.10388 98.7561 7.38318 99.2053 5.84291 99.9887L7.84255 104.979L3.7133 101.374C2.60946 102.282 1.71453 103.377 1.07976 104.598C0.44498 105.818 0.0828095 107.14 0.0139708 108.487C-0.0389564 109.44 0.0586719 110.395 0.303916 111.324C0.870767 113.507 2.21044 115.463 4.11955 116.896C6.02866 118.328 8.40295 119.159 10.882 119.262V119.262Z" fill="#57B793"/>
<path opacity="0.1" d="M14.1317 88.9216C16.7646 89.1836 19.3241 89.9214 21.9636 90.069C24.6031 90.2165 27.5059 89.6474 29.1756 87.7924C30.0755 86.7926 30.5254 85.5278 31.2853 84.4376C32.0053 83.4219 32.9922 82.5829 34.1581 81.9954C34.8841 83.3012 35.2944 84.7317 35.3618 86.1918C35.4292 87.6518 35.1522 89.1082 34.5491 90.4642C33.946 91.8201 33.0306 93.0447 31.8638 94.0565C30.6969 95.0684 29.3052 95.8444 27.781 96.3331C26.2568 96.8218 24.635 97.012 23.0233 96.8911C21.4116 96.7701 19.8467 96.3408 18.4326 95.6317C17.0186 94.9225 15.7876 93.9496 14.8214 92.7777C13.8552 91.6058 13.1759 90.2616 12.8286 88.8343C13.2719 88.8524 13.7051 88.8795 14.1317 88.9216Z" fill="black"/>
<path opacity="0.1" d="M10.8821 119.262C12.8472 119.344 14.8024 118.966 16.5578 118.163C18.3133 117.361 19.8094 116.163 20.901 114.684C21.9925 113.205 22.6425 111.496 22.7878 109.724C22.9331 107.951 22.5688 106.175 21.7302 104.567C20.8248 105.117 20.0461 105.82 19.4372 106.639C18.6241 107.747 18.1341 109.027 17.1777 110.044C15.4013 111.93 12.3685 112.547 9.61569 112.436C6.86286 112.324 4.20668 111.613 1.46717 111.388C1.08724 111.357 0.700647 111.333 0.317383 111.324C0.883595 113.505 2.22128 115.46 4.12772 116.893C6.03416 118.325 8.40542 119.157 10.8821 119.262V119.262Z" fill="black"/>
<path opacity="0.1" d="M38.5634 135.906C40.5094 135.989 42.4462 135.619 44.1893 134.833C45.9324 134.047 47.4235 132.871 48.5204 131.416C49.6173 129.961 50.2834 128.277 50.4551 126.523C50.6269 124.77 50.2985 123.006 49.5014 121.4C48.5624 121.964 47.7457 122.678 47.0919 123.508C46.2054 124.637 45.6521 125.938 44.6157 126.98C42.6927 128.916 39.4599 129.6 36.5438 129.537C33.721 129.483 31.0015 128.856 28.1953 128.66C28.8901 130.684 30.2581 132.466 32.1133 133.762C33.9685 135.059 36.2207 135.807 38.5634 135.906V135.906Z" fill="black"/>
<path opacity="0.1" d="M32.9346 155.908C34.0811 157.927 35.9334 159.547 38.2038 160.517C40.4742 161.487 43.0355 161.752 45.4899 161.272C47.9442 160.791 50.1542 159.591 51.7764 157.859C53.3986 156.127 54.3422 153.959 54.4607 151.692C54.5403 150.267 54.2871 148.843 53.7175 147.512C52.7792 148.069 51.937 148.748 51.2179 149.527C50.1348 150.731 49.4182 152.075 48.1651 153.189C45.8322 155.255 42.0696 156.11 38.7202 156.2C36.787 156.206 34.855 156.109 32.9346 155.908V155.908Z" fill="black"/>
<path d="M123.135 181.774L79.1429 189.904L78.143 189.814L39.4834 186.291V142.023L86.8081 134.795L121.135 138.409L121.145 138.605L121.149 138.701L123.135 181.774Z" fill="#6C63FF"/>
<path opacity="0.1" d="M123.135 181.773L79.1429 189.904L78.1431 189.813V144.431L121.145 138.604L123.135 181.773Z" fill="black"/>
<path opacity="0.05" d="M121.149 138.701L121.135 138.71L78.143 144.432L39.4834 142.023L86.8081 134.795L121.135 138.409L121.145 138.605L121.149 138.701Z" fill="black"/>
<path d="M171.46 183.58L127.468 191.711L126.468 191.621L87.8081 188.097V143.829L135.133 136.602L169.46 140.216L169.47 140.411L169.473 140.508L171.46 183.58Z" fill="#3F3D56"/>
<path opacity="0.1" d="M171.46 183.58L127.468 191.711L126.468 191.621V146.239L169.47 140.412L171.46 183.58Z" fill="black"/>
<path opacity="0.05" d="M169.473 140.508L169.46 140.517L126.468 146.239L87.8081 143.829L135.133 136.602L169.46 140.216L169.47 140.411L169.473 140.508Z" fill="black"/>
<path d="M141.132 140.216L97.1399 148.347L96.1401 148.256L57.4805 144.733V100.465L104.805 93.2375L139.132 96.8513L139.142 97.047L139.146 97.1434L141.132 140.216Z" fill="#3F3D56"/>
<path opacity="0.1" d="M141.132 140.215L97.14 148.346L96.1401 148.256V102.874L139.142 97.0466L141.132 140.215Z" fill="black"/>
<path opacity="0.05" d="M139.146 97.1434L139.132 97.1524L96.1401 102.874L57.4805 100.465L104.805 93.2375L139.132 96.8513L139.142 97.047L139.146 97.1434Z" fill="black"/>
<path d="M166.127 142.071L143.168 146.317L142.645 146.269L122.468 144.429V121.325L147.167 117.552L165.084 119.44L165.091 119.542V119.59L166.127 142.071Z" fill="#3F3D56"/>
<path opacity="0.1" d="M166.127 142.07L143.168 146.317L142.645 146.268V122.584L165.09 119.542L166.127 142.07Z" fill="black"/>
<path opacity="0.05" d="M165.091 119.59L165.084 119.597L142.645 122.584L122.468 121.325L147.167 117.552L165.084 119.44L165.091 119.542V119.59Z" fill="black"/>
<path d="M104.472 97.2004L81.5126 101.444L80.9893 101.398L60.813 99.5584V76.4547L85.5118 72.6814L103.429 74.5696L103.435 74.6719V74.7201L104.472 97.2004Z" fill="#3F3D56"/>
<path opacity="0.1" d="M104.472 97.2003L81.5125 101.443L80.9893 101.398V77.7134L103.435 74.6719L104.472 97.2003Z" fill="black"/>
<path opacity="0.05" d="M103.435 74.7201L103.429 74.7262L80.9893 77.7135L60.813 76.4547L85.5118 72.6814L103.429 74.5696L103.435 74.6719V74.7201Z" fill="black"/>
<path d="M144.798 96.2968L121.839 100.54L121.315 100.495L101.139 98.6548V75.5511L125.838 71.7778L143.755 73.666L143.761 73.7684V73.8166L144.798 96.2968Z" fill="#6C63FF"/>
<path opacity="0.1" d="M144.798 96.2968L121.839 100.54L121.315 100.495V76.8099L143.761 73.7683L144.798 96.2968Z" fill="black"/>
<path opacity="0.05" d="M143.761 73.8166L143.755 73.8226L121.315 76.8099L101.139 75.5511L125.838 71.7778L143.755 73.666L143.761 73.7684V73.8166Z" fill="black"/>
<path d="M156.795 73.1089L133.836 77.352L133.313 77.3068L113.137 75.4668V52.3632L137.836 48.5898L155.752 50.478L155.759 50.5804V50.6286L156.795 73.1089Z" fill="#3F3D56"/>
<path opacity="0.1" d="M156.795 73.1088L133.836 77.3519L133.313 77.3067V53.6219L155.759 50.5803L156.795 73.1088Z" fill="black"/>
<path opacity="0.05" d="M155.759 50.6286L155.752 50.6346L133.313 53.6219L113.137 52.3632L137.836 48.5898L155.752 50.478L155.759 50.5804V50.6286Z" fill="black"/>
<path d="M172.433 25.8778C172.189 27.8352 170.536 29.4132 169.923 31.2983C169.003 34.1441 170.59 37.2007 172.776 39.4292C174.538 41.1998 176.671 42.637 179.052 43.6574C181.433 44.6778 184.015 45.2612 186.647 45.3737C187.42 45.4339 188.199 45.3572 188.94 45.1479C189.599 44.9053 190.194 44.5377 190.683 44.0698C192.322 42.5791 193.206 40.5163 193.556 38.4354C193.905 36.3545 193.772 34.2375 193.636 32.1385C193.635 31.7041 193.547 31.2734 193.376 30.8677C193.152 30.4818 192.845 30.1407 192.472 29.8649C191.29 28.8833 189.988 28.0275 188.59 27.3142C187.99 27.0131 187.347 26.7119 186.963 26.191C186.7 25.7761 186.529 25.3189 186.46 24.8449L186.03 22.8694C185.954 22.2998 185.739 21.7526 185.4 21.2673C184.644 20.3458 183.194 20.2193 181.924 20.1741L177.258 20.0085C175.809 19.9573 173.902 19.5809 172.486 19.8399C171.153 20.0778 171.603 21.18 171.843 22.1797C172.19 23.389 172.388 24.6292 172.433 25.8778V25.8778Z" fill="#FFC0C6"/>
<path opacity="0.1" d="M172.433 25.8778C172.189 27.8352 170.536 29.4132 169.923 31.2983C169.003 34.1441 170.59 37.2007 172.776 39.4292C174.538 41.1998 176.671 42.637 179.052 43.6574C181.433 44.6778 184.015 45.2612 186.647 45.3737C187.42 45.4339 188.199 45.3572 188.94 45.1479C189.599 44.9053 190.194 44.5377 190.683 44.0698C192.322 42.5791 193.206 40.5163 193.556 38.4354C193.905 36.3545 193.772 34.2375 193.636 32.1385C193.635 31.7041 193.547 31.2734 193.376 30.8677C193.152 30.4818 192.845 30.1407 192.472 29.8649C191.29 28.8833 189.988 28.0275 188.59 27.3142C187.99 27.0131 187.347 26.7119 186.963 26.191C186.7 25.7761 186.529 25.3189 186.46 24.8449L186.03 22.8694C185.954 22.2998 185.739 21.7526 185.4 21.2673C184.644 20.3458 183.194 20.2193 181.924 20.1741L177.258 20.0085C175.809 19.9573 173.902 19.5809 172.486 19.8399C171.153 20.0778 171.603 21.18 171.843 22.1797C172.19 23.389 172.388 24.6292 172.433 25.8778V25.8778Z" fill="black"/>
<path d="M202.064 114.04L200.084 133.651C199.568 138.794 199.041 143.959 198.028 149.036C197.695 150.786 197.268 152.526 196.781 154.252C195.428 159.043 193.465 163.726 192.832 168.637C192.812 168.779 192.796 168.939 192.779 169.068C192.649 170.152 192.536 171.248 192.112 172.26C191.779 173.01 191.309 173.694 190.966 174.434C190.299 175.916 190.193 177.554 190.109 179.159C187.707 177.934 185.076 177.117 182.347 176.75C181.014 176.573 179.565 176.449 178.681 175.546C177.682 174.564 177.798 173.061 177.965 171.742C178.489 167.647 179.011 163.553 179.531 159.462C179.705 157.701 180.039 155.957 180.531 154.246C180.711 153.677 180.928 153.117 181.148 152.556C181.451 151.786 181.758 151.015 181.987 150.223C182.306 148.95 182.527 147.659 182.647 146.359C183.184 142.239 183.83 138.129 184.397 134.012L184.427 133.795C185.277 127.556 185.923 121.286 185.737 115.001C185.71 114.07 185.667 113.14 185.6 112.206C185.507 110.854 185.37 110.138 186.6 109.291C187.97 108.358 189.773 107.704 191.339 107.093C192.182 106.762 201.467 103.78 201.671 104.437C202.102 105.831 202.326 107.271 202.337 108.719C202.356 110.496 202.265 112.273 202.064 114.04V114.04Z" fill="#605D82"/>
<path opacity="0.1" d="M198.028 149.036C197.695 150.785 197.268 152.526 196.782 154.252C195.429 159.043 193.466 163.725 192.833 168.637C192.813 168.779 192.796 168.938 192.779 169.068C188.64 163.725 185.154 157.98 181.115 152.58C181.418 151.809 181.725 151.038 181.955 150.246C182.286 148.967 182.518 147.668 182.648 146.359C183.184 142.239 183.831 138.128 184.397 134.012L184.427 133.795C184.661 134.669 184.996 135.517 185.427 136.328C188.14 141.308 194.586 143.826 197.738 148.593C197.843 148.742 197.939 148.889 198.028 149.036Z" fill="black"/>
<path d="M164.441 105.244C164.577 109.237 165.284 113.197 165.991 117.142L167.447 125.273C168.243 129.73 169.077 134.274 171.41 138.264C173.156 141.251 175.669 143.799 177.945 146.476C183.537 153.059 187.74 160.519 193.042 167.294C194.585 169.264 196.788 171.396 199.418 170.983C201.144 170.715 202.397 169.414 203.75 168.415C205.35 167.234 207.276 166.37 208.536 164.888C209.796 163.407 210.043 160.949 208.336 159.895C207.753 159.537 207.043 159.401 206.383 159.172C203.74 158.269 202.027 155.932 200.941 153.571C199.854 151.21 199.191 148.678 197.741 146.482C194.589 141.715 188.14 139.198 185.427 134.214C183.907 131.425 183.761 128.191 183.647 125.098L183.351 117.175C183.317 116.308 183.294 115.407 183.684 114.615C184.72 112.507 187.853 112.309 190.393 112.041C193.273 111.737 196.063 110.942 198.615 109.698C200.078 108.984 201.504 108.075 202.281 106.75C202.994 105.545 203.091 104.127 203.174 102.759L204.054 88.398C204.13 87.1633 204.197 85.8834 203.72 84.727C202.511 81.818 198.445 80.8664 195.009 81.0049C188.616 81.2639 182.718 83.7483 176.679 85.4287C175.182 85.8443 173.679 86.2177 172.136 86.4978C170.803 86.7417 169.137 86.6423 167.857 87.0338C165.564 87.7324 165.621 92.2677 165.297 94.1468C164.63 97.8137 164.344 101.529 164.441 105.244V105.244Z" fill="#605D82"/>
<path d="M198.551 171.592C199.114 172.107 199.298 172.86 199.444 173.57C200.259 177.514 200.683 181.516 200.711 185.529C200.674 185.903 200.756 186.279 200.947 186.613C201.107 186.811 201.322 186.966 201.571 187.064C203.2 187.766 205.09 186.787 206.45 185.712C208.966 183.722 211.095 181.048 211.239 178.027C211.275 177.25 211.179 176.464 211.329 175.696C211.549 174.558 212.285 173.567 212.932 172.573C214.038 170.88 214.932 169.08 215.598 167.207C215.845 166.502 216.011 165.617 215.398 165.126C215.183 164.972 214.938 164.856 214.675 164.786L207.31 162.317C206.67 162.103 205.083 165.786 204.833 166.189C204.217 167.174 203.604 167.731 202.367 167.96C201.131 168.189 199.604 167.858 198.424 168.427C196.425 169.387 197.421 170.565 198.551 171.592Z" fill="#535070"/>
<path d="M187.193 173.865C187.057 173.619 186.866 173.401 186.633 173.224C186.293 173.028 185.905 172.909 185.503 172.877C184.104 172.66 182.444 172.519 181.474 173.462C180.568 174.344 180.724 175.78 179.968 176.774C179.728 177.075 179.401 177.346 179.195 177.678C178.938 178.185 178.823 178.741 178.861 179.298C178.821 180.83 178.781 182.369 178.901 183.899C178.998 185.182 179.235 186.528 180.124 187.534C181.551 189.148 184.124 189.38 186.403 189.482L188.253 189.57C188.762 189.623 189.277 189.58 189.766 189.443C190.069 189.317 190.341 189.137 190.565 188.914C190.79 188.691 190.962 188.43 191.072 188.145C192.036 185.983 190.513 183.655 189.573 181.487C188.49 178.99 188.683 176.223 187.193 173.865Z" fill="#535070"/>
<path d="M171.899 14.841C171.876 14.6218 171.911 14.4007 172.002 14.1966C172.272 13.7659 172.979 13.8954 173.512 14.0038C175.655 14.4917 177.915 14.049 180.124 14.1635C182.334 14.2779 184.82 15.2747 185.263 17.2321C186.866 16.207 188.248 14.925 189.339 13.4497C189.953 12.6216 190.486 11.673 190.402 10.6792C190.282 9.24579 188.953 8.17373 187.736 7.26428L184.07 4.554C183.587 4.15373 183.03 3.83362 182.424 3.60841C181.577 3.34641 180.651 3.47289 179.758 3.47289C177.092 3.47289 174.232 2.37373 171.856 3.47289C170.856 3.93364 170.113 4.72565 169.393 5.49657L166.117 9.00187C165.869 9.22531 165.688 9.50196 165.59 9.80592C165.497 10.2335 165.74 10.6551 165.827 11.0858C165.98 11.8687 165.607 12.7059 165.894 13.4588C166.37 14.7055 168.05 14.8832 169.076 15.5999C169.456 15.8649 170.056 16.7713 170.513 16.7593C171.316 16.7442 171.876 15.4192 171.899 14.841Z" fill="#3F3D56"/>
<path d="M177.459 25.1788C183.256 25.1788 187.957 20.9317 187.957 15.6928C187.957 10.4538 183.256 6.20679 177.459 6.20679C171.661 6.20679 166.96 10.4538 166.96 15.6928C166.96 20.9317 171.661 25.1788 177.459 25.1788Z" fill="#FFC0C6"/>
<path d="M179.918 36.4511C179.563 35.5317 178.893 34.7381 178.006 34.185C177.119 33.6318 176.06 33.3476 174.982 33.3734C174.673 33.4267 174.354 33.3898 174.069 33.268C173.908 33.1569 173.779 33.0122 173.693 32.8464C173.056 31.8082 172.543 30.712 172.163 29.576C171.996 29.0731 171.766 28.4799 171.203 28.3504C170.75 28.245 170.287 28.51 169.983 28.8322C169.715 29.178 169.423 29.5088 169.11 29.823C167.777 30.889 165.444 29.9163 164.048 30.895C163.818 31.0546 163.628 31.2594 163.381 31.407C163.141 31.5391 162.882 31.6404 162.611 31.7081C159.901 32.505 157.243 33.4431 154.653 34.5178C155.586 39.589 156.539 44.7566 158.725 49.4996C159.765 51.7582 160.942 53.9716 161.775 56.2994C163.621 61.458 163.701 66.9779 163.725 72.4015C163.725 76.1116 163.725 79.8999 162.391 83.4113C162.091 84.2063 161.725 84.9953 161.642 85.8204C161.558 86.6455 161.832 87.5791 162.581 88.073C163.015 88.3317 163.513 88.4899 164.031 88.5337C166.334 88.8348 168.654 88.2868 170.92 87.811C176.995 86.5401 183.194 85.8114 189.377 85.1007L199.741 83.8961C200.485 83.8491 201.212 83.6786 201.888 83.3932C203.784 82.4566 203.964 79.8789 202.784 78.2406C202.221 77.4547 201.424 76.8102 200.948 75.9791C200.471 75.1479 200.435 73.9795 201.251 73.4043C202.917 72.2298 202.417 70.0526 202.497 68.1494C202.72 62.8252 202.69 57.505 202.407 52.1888C202.323 51.0864 202.303 49.9806 202.347 48.8763C202.464 47.0031 202.977 45.1692 203.491 43.3473L206.64 32.1448C205.817 30.9703 204.24 30.2235 202.751 29.8862C201.261 29.5489 199.705 29.4496 198.235 29.037C195.235 28.1938 192.543 26.0557 189.4 26.2544C189.162 26.2583 188.927 26.3097 188.713 26.405C188.007 26.7694 188.117 27.6909 188.073 28.4257C187.973 30.0548 186.647 31.413 185.187 32.3676C183.728 33.3222 182.055 34.0149 180.711 35.102C180.478 35.2609 180.286 35.464 180.149 35.6971C180.012 35.9302 179.933 36.1875 179.918 36.4511V36.4511Z" fill="#3F3D56"/>
<path d="M138.322 47.0783C137.627 47.4867 136.888 47.8308 136.116 48.1052C135.383 48.3672 134.599 48.5749 134 49.0327C133.703 49.2655 133.453 49.5438 133.263 49.8548C132.908 50.4242 132.728 51.0694 132.743 51.7229C132.758 52.3764 132.966 53.0143 133.347 53.5702C133.728 54.126 134.266 54.5794 134.907 54.8831C135.547 55.1867 136.267 55.3295 136.989 55.2965C137.952 55.2513 138.862 54.8989 139.745 54.5526L147.15 51.6406C148.404 51.1497 149.757 50.5775 150.35 49.4633C150.418 49.359 150.444 49.2366 150.423 49.117C150.366 48.9857 150.257 48.8784 150.117 48.8159C148.448 47.8348 146.988 46.5903 145.807 45.1419C145.504 44.7685 145.141 43.8892 144.701 43.6633C143.135 42.8773 139.578 46.3435 138.322 47.0783Z" fill="#FFC0C6"/>
<path d="M217.481 44.7141L220.211 47.5328C220.797 48.1351 221.384 48.7374 221.917 49.3878C223.229 51.0208 224.282 52.812 225.043 54.709C225.636 56.1154 226.13 57.615 225.923 59.1087C225.785 59.8745 225.555 60.6246 225.24 61.3462C224.74 62.7334 224.119 64.0827 223.383 65.3815C222.769 66.367 222.075 67.3101 221.307 68.2032C219.193 70.7345 216.88 73.1247 214.385 75.3553C213.452 76.1895 213.052 77.5416 212.655 78.6679C211.906 80.7488 210.123 82.372 208.4 83.9078C207.845 84.4372 207.232 84.9135 206.57 85.3292C205.578 85.9076 204.417 86.2053 203.237 86.1844C202.722 86.1871 202.212 86.0917 201.741 85.9044C200.561 85.3984 199.961 84.1668 199.838 82.9923C199.729 81.9251 199.926 80.8506 200.411 79.8725C201.977 76.7376 206 75.3794 208.843 73.0908C210.509 71.7507 211.786 70.0643 213.045 68.399C213.899 67.358 214.611 66.2288 215.168 65.0352C215.802 63.5024 215.555 61.6895 216.111 60.1356C216.345 59.4761 216.778 58.8829 217.015 58.2294C217.251 57.5759 217.331 56.802 216.888 56.2388C216.556 55.8788 216.131 55.5976 215.652 55.4197C213.835 54.5886 211.802 53.5165 211.456 51.7006C211.317 50.695 211.608 49.6794 212.269 48.8608C212.926 48.0527 213.696 47.324 214.558 46.6926C215.348 46.0482 216.685 45.3345 217.481 44.7141Z" fill="#FFC0C6"/>
<path d="M136.569 51.0111C136.09 50.1317 135.486 49.2343 134.513 48.7977C134.04 48.6131 133.529 48.5178 133.013 48.5178C132.498 48.5178 131.987 48.6131 131.514 48.7977C130.571 49.1661 129.687 49.6483 128.888 50.2311L126.535 51.8001C126.001 52.1164 125.529 52.5101 125.138 52.9655C124.765 53.5179 124.518 54.1323 124.412 54.7723C124.078 56.2389 123.808 57.7476 124.042 59.2323C124.415 61.6414 126.015 63.7253 127.774 65.5562C128.874 66.6946 130.234 67.8449 131.907 67.8961C132.63 67.9172 133.433 67.6582 133.733 67.065C133.838 66.8293 133.893 66.5781 133.897 66.3242C134.077 63.65 133.017 61.0391 131.784 58.6029C131.45 57.9404 131.09 57.2538 131.117 56.528C131.107 56.4048 131.142 56.282 131.217 56.1787C131.323 56.0785 131.465 56.0155 131.617 56.001C133.307 55.6999 136.22 56.8864 137.403 55.1909C138.169 54.0707 137.116 52.0079 136.569 51.0111Z" fill="#FFC0C6"/>
<path d="M171.346 11.8566C171.325 11.6372 171.362 11.4165 171.453 11.2122C171.723 10.7786 172.429 10.9111 172.962 11.0195C175.105 11.5073 177.365 11.0646 179.575 11.1791C181.784 11.2935 184.267 12.2903 184.714 14.2477C186.315 13.221 187.696 11.9393 188.79 10.4654C189.403 9.63422 189.936 8.68562 189.853 7.69185C189.733 6.25841 188.4 5.18634 187.187 4.2799L183.521 1.56962C183.039 1.1694 182.483 0.849276 181.878 0.624033C181.028 0.362039 180.105 0.48852 179.211 0.48852C176.545 0.48852 173.686 -0.61065 171.309 0.48852C170.31 0.949268 169.566 1.74127 168.847 2.5122L165.567 6.0175C165.321 6.24144 165.141 6.518 165.044 6.82154C164.951 7.24917 165.194 7.67077 165.281 8.1014C165.434 8.88437 165.061 9.72155 165.347 10.4714C165.824 11.7211 167.503 11.8988 168.53 12.6155C168.91 12.8805 169.51 13.787 169.966 13.7749C170.756 13.7599 171.316 12.4348 171.346 11.8566Z" fill="#3F3D56"/>
<path d="M149.05 37.8511C148.627 38.0993 148.255 38.4122 147.951 38.7756C147.567 39.3026 147.487 39.9802 147.157 40.5222C146.451 41.7087 144.795 42.1333 143.765 43.106C143.598 43.239 143.481 43.416 143.431 43.612C143.425 43.8768 143.523 44.1351 143.708 44.3407L148.687 51.4115C150.354 51.544 151.933 50.6045 153.593 50.731C154.209 50.7761 154.846 50.9689 155.439 50.8032C155.863 50.6326 156.261 50.4129 156.622 50.1498C157.622 49.5836 158.929 49.5174 159.758 48.7735C160.588 48.0297 160.658 46.9366 160.648 45.9217C160.663 45.0409 160.564 44.1616 160.352 43.3018C159.618 40.5915 157.322 38.5016 155.883 36.0985C155.179 34.927 154.799 34.2434 153.316 35.0475C151.833 35.8515 150.453 36.9236 149.05 37.8511Z" fill="#3F3D56"/>
<path d="M209.509 34.2767C210.444 34.8257 211.288 35.493 212.015 36.2582C212.771 37.1406 213.201 38.2247 213.931 39.1281C214.661 40.0315 215.598 40.682 216.397 41.489C217.614 42.7117 218.437 44.1993 219.244 45.6779C217.269 47.9991 215.118 50.1928 212.805 52.2428C212.547 52.517 212.206 52.7178 211.825 52.821C211.566 52.8462 211.305 52.8128 211.064 52.724C210.823 52.6351 210.61 52.4936 210.445 52.3121C210.085 51.9748 209.832 51.5532 209.489 51.2009C208.68 50.4472 207.602 49.9767 206.446 49.8729C205.299 49.7719 204.146 49.7568 202.996 49.8277C202.744 49.8547 202.489 49.816 202.26 49.7163C202.09 49.6106 201.952 49.4676 201.86 49.3007C200.527 47.2288 200.944 44.627 201.42 42.26L202.51 36.8394C202.669 35.8045 202.975 34.7924 203.42 33.828C203.833 33.03 204.753 31.6748 205.893 31.9157C207.032 32.1566 208.545 33.6503 209.509 34.2767Z" fill="#3F3D56"/>
<path d="M114.47 74.0124L91.5111 78.2555L90.9879 78.2103L70.8115 76.3704V53.2667L95.5104 49.4934L113.427 51.3816L113.434 51.484V51.5321L114.47 74.0124Z" fill="#6C63FF"/>
<path opacity="0.1" d="M114.47 74.0121L91.5105 78.2552L90.9873 78.21V54.5252L113.433 51.4836L114.47 74.0121Z" fill="black"/>
<path opacity="0.05" d="M113.434 51.5321L113.427 51.5382L90.9879 54.5255L70.8115 53.2667L95.5104 49.4934L113.427 51.3816L113.434 51.484V51.5321Z" fill="black"/>
<path d="M126.468 51.1257L103.509 55.3718L102.985 55.3236L82.8091 53.4837V30.38L107.508 26.6067L125.425 28.4949L125.431 28.5972V28.6454L126.468 51.1257Z" fill="#3F3D56"/>
<path opacity="0.1" d="M126.467 51.1256L103.508 55.3717L102.985 55.3236V31.6387L125.431 28.5972L126.467 51.1256Z" fill="black"/>
<path opacity="0.05" d="M125.431 28.6454L125.425 28.6514L102.985 31.6388L82.8091 30.38L107.508 26.6067L125.425 28.4949L125.431 28.5972V28.6454Z" fill="black"/>
</svg>
