
<svg width="830" height="816" viewBox="0 0 830 816" fill="none" xmlns="http://www.w3.org/2000/svg">
<path d="M290.243 203.764C292.098 204.212 293.82 205.015 295.289 206.118C296.758 207.22 297.937 208.594 298.743 210.143C299.55 211.693 299.964 213.38 299.957 215.085C299.95 216.791 299.522 218.473 298.703 220.015L332.088 249.064L308.369 253.586L280.303 225.307C277.475 223.909 275.32 221.639 274.248 218.928C273.176 216.217 273.26 213.253 274.486 210.598C275.711 207.942 277.992 205.78 280.896 204.52C283.8 203.261 287.126 202.992 290.243 203.764V203.764Z" fill="#FFB8B8"/>
<path d="M313.906 246.159L283.69 206.602C283.302 206.092 283.157 205.466 283.287 204.862C283.417 204.258 283.812 203.725 284.385 203.38L285.617 202.639C285.901 202.469 286.221 202.349 286.557 202.288C286.893 202.227 287.24 202.226 287.577 202.283C287.914 202.341 288.235 202.458 288.522 202.625C288.808 202.793 289.055 203.01 289.248 203.262L319.463 242.82C319.656 243.072 319.791 243.356 319.86 243.654C319.93 243.953 319.932 244.26 319.868 244.56C319.803 244.859 319.673 245.144 319.484 245.398C319.296 245.652 319.053 245.871 318.769 246.042L317.536 246.782C316.962 247.126 316.258 247.254 315.577 247.137C314.896 247.02 314.295 246.669 313.906 246.159V246.159Z" fill="white"/>
<path d="M305.367 246.383L280.291 213.553C279.223 212.15 278.823 210.43 279.181 208.769C279.539 207.108 280.625 205.642 282.2 204.693L284.795 203.134L317.946 246.535L315.352 248.095L315.352 248.095C313.774 249.042 311.837 249.393 309.965 249.072C308.093 248.751 306.439 247.784 305.367 246.383V246.383Z" fill="#3F3D56"/>
<path d="M306.166 528.008L290.262 526.25L292.813 471.257L313.69 473.567L306.166 528.008Z" fill="#FFB8B8"/>
<path d="M308.33 542.139L257.051 536.467L257.131 535.892C257.452 533.565 258.287 531.319 259.587 529.281C260.887 527.242 262.627 525.452 264.707 524.012C266.788 522.572 269.169 521.511 271.713 520.888C274.258 520.266 276.917 520.095 279.538 520.384L279.539 520.385L310.858 523.848L308.33 542.139Z" fill="#2F2E41"/>
<path d="M491.334 519.052L475.992 523.126L450.873 472.501L473.518 466.488L491.334 519.052Z" fill="#FFB8B8"/>
<path d="M499.724 531.223L450.255 544.36L450.066 543.804C449.305 541.558 449.049 539.202 449.313 536.87C449.577 534.538 450.356 532.276 451.606 530.213C452.856 528.15 454.551 526.326 456.596 524.846C458.641 523.366 460.995 522.259 463.523 521.588L463.524 521.587L493.739 513.564L499.724 531.223Z" fill="#2F2E41"/>
<path d="M330.416 257.571L289.224 222.7C288.655 222.219 288.201 221.642 287.887 221.002C287.573 220.363 287.407 219.675 287.397 218.978C287.388 218.281 287.536 217.59 287.832 216.945C288.129 216.3 288.567 215.715 289.123 215.224L297.652 207.679C298.666 206.784 300.013 206.249 301.441 206.172C302.869 206.095 304.28 206.482 305.412 207.261L339.974 231.118L362.032 184.614C362.902 182.779 364.188 181.123 365.809 179.747C367.43 178.372 369.352 177.307 371.457 176.619C373.561 175.93 375.803 175.632 378.044 175.744C380.286 175.855 382.478 176.373 384.486 177.266V177.266C387.652 178.656 390.226 180.92 391.823 183.716C393.419 186.513 393.952 189.692 393.341 192.777C389.235 213.978 365.174 241.855 351.197 256.586C349.287 258.592 346.723 260.023 343.858 260.682C340.992 261.34 337.965 261.193 335.193 260.262C333.415 259.656 331.791 258.741 330.416 257.571V257.571Z" fill="#6C63FF"/>
<path d="M282.006 492.906C280.394 492.448 279.043 491.453 278.24 490.129C277.438 488.806 277.245 487.258 277.704 485.813L288.088 387.848C288.568 383.379 290.187 379.068 292.823 375.24L351.589 290.148L403.492 298.857L403.827 298.983C428.975 312.919 450.864 379.687 472.032 444.257C475.324 454.299 478.728 464.682 482.053 474.606C482.674 476.024 482.647 477.6 481.977 478.999C481.307 480.397 480.047 481.506 478.467 482.09L462.683 487.844C461.188 488.394 459.514 488.428 457.989 487.942C456.463 487.455 455.196 486.482 454.434 485.212L374.594 353.086C374.495 352.92 374.352 352.779 374.178 352.673C374.003 352.567 373.803 352.501 373.593 352.48C373.385 352.454 373.174 352.476 372.977 352.541C372.781 352.607 372.607 352.715 372.47 352.856L325.141 399.639L307.164 489.376L307.093 489.57C306.459 490.85 305.326 491.883 303.901 492.479C302.477 493.074 300.857 493.193 299.339 492.813L282.414 492.961L282.308 492.961L282.006 492.906Z" fill="#2F2E41"/>
<path d="M348.703 299.502L348.375 299.406L348.278 299.112C348.041 298.395 324.861 226.846 346.633 181.527L346.656 181.486C347.291 180.407 362.428 155.059 379.8 152.65L380.263 152.586L385.826 161.992C387.586 163.584 417.883 191.965 403.64 240.214C404.852 244.189 421.27 298.767 412.038 306.83C409.96 308.646 405.811 309.328 400.58 309.286C382.174 309.138 350.415 299.998 348.703 299.502Z" fill="#6C63FF"/>
<path d="M376.295 143.702C398.67 143.882 416.938 127.927 417.098 108.064C417.258 88.2015 399.249 71.9537 376.874 71.7735C354.499 71.5933 336.231 87.5491 336.071 107.412C335.911 127.274 353.92 143.522 376.295 143.702Z" fill="#2F2E41"/>
<path d="M360.201 143.401C377.929 143.544 392.402 130.903 392.529 115.166C392.656 99.4287 378.388 86.5557 360.66 86.4129C342.933 86.2702 328.459 98.9117 328.332 114.649C328.205 130.386 342.474 143.259 360.201 143.401Z" fill="#FFB8B8"/>
<path d="M380.864 142.752C377.928 143.65 374.331 144.434 372.041 142.504C369.807 140.619 370.244 137.209 371.59 134.705C372.935 132.201 375.009 129.98 375.661 127.248C376.596 123.333 374.293 119.239 370.98 116.655C367.667 114.07 363.482 112.693 359.395 111.368L336.983 104.096C331.435 102.296 325.458 100.186 322.383 95.5424C317.934 88.823 322.128 79.303 329.546 75.4628C336.965 71.6225 346.29 72.4242 354.238 75.2305C358.634 76.7826 362.81 78.9062 367.36 80.0105C376.34 82.1899 386.585 80.3822 394.455 84.949C401.306 88.9245 404.434 96.9487 404.141 104.431C403.849 111.913 400.688 119.015 397.359 125.833C395.378 129.89 393.264 133.992 389.938 137.204C386.613 140.416 381.827 142.643 377.069 142.009L380.864 142.752Z" fill="#2F2E41"/>
<path d="M410.516 113.812C424.952 113.928 436.737 103.634 436.841 90.8198C436.944 78.0053 425.325 67.5228 410.89 67.4066C396.454 67.2903 384.668 77.5843 384.565 90.3989C384.462 103.213 396.081 113.696 410.516 113.812Z" fill="#2F2E41"/>
<path d="M367.306 123.906C367.308 123.485 367.44 123.073 367.687 122.714C367.934 122.354 368.286 122.062 368.706 121.867C369.127 121.672 369.599 121.583 370.072 121.608C370.546 121.634 371.003 121.773 371.395 122.012C371.786 122.25 372.098 122.578 372.295 122.961C372.493 123.345 372.57 123.768 372.517 124.187C372.464 124.605 372.284 125.003 371.996 125.337C371.708 125.671 371.323 125.929 370.882 126.083L370.841 131.186C370.839 131.417 370.734 131.637 370.549 131.799C370.364 131.961 370.114 132.05 369.854 132.048C369.594 132.046 369.345 131.952 369.163 131.788C368.98 131.623 368.879 131.401 368.881 131.17L368.922 126.068C368.441 125.891 368.03 125.591 367.742 125.205C367.454 124.82 367.302 124.368 367.306 123.906V123.906Z" fill="white"/>
<path d="M285.147 205.852C287.06 205.699 288.988 205.919 290.797 206.499C292.605 207.078 294.249 208.002 295.613 209.206C296.976 210.41 298.027 211.864 298.69 213.465C299.353 215.067 299.613 216.778 299.451 218.477L342.125 235.395L321.685 246.975L284.295 229.135C281.097 228.698 278.188 227.236 276.119 225.025C274.05 222.814 272.966 220.008 273.071 217.138C273.176 214.268 274.463 211.534 276.689 209.454C278.914 207.374 281.924 206.092 285.147 205.852L285.147 205.852Z" fill="#FFB8B8"/>
<path d="M358.725 262.78L306.453 242.818C305.731 242.542 305.079 242.142 304.534 241.639C303.989 241.136 303.563 240.542 303.281 239.891C302.998 239.241 302.865 238.547 302.89 237.85C302.914 237.154 303.096 236.469 303.423 235.836L308.449 226.12C309.048 224.968 310.099 224.049 311.406 223.535C312.713 223.021 314.187 222.947 315.553 223.328L357.292 235.011L359.693 184.566C359.788 182.576 360.341 180.625 361.32 178.833C362.298 177.042 363.68 175.448 365.381 174.151C367.082 172.854 369.065 171.881 371.208 171.292C373.351 170.703 375.607 170.511 377.839 170.727V170.727C381.35 171.051 384.65 172.378 387.243 174.507C389.837 176.636 391.584 179.453 392.222 182.536C396.701 203.692 385.11 237.284 377.802 255.426C376.802 257.899 374.962 260.034 372.537 261.538C370.111 263.043 367.218 263.842 364.256 263.826C362.353 263.807 360.473 263.452 358.725 262.78V262.78Z" fill="#6C63FF"/>
<path d="M38.2816 458.396L26.7476 454.242L37.2826 407.775L54.3066 413.906L38.2816 458.396Z" fill="#FFB6B6"/>
<path d="M39.6299 454.632L27.6401 450.312L19.8599 447.512C17.959 446.827 15.9418 446.523 13.9235 446.617C11.9051 446.712 9.92523 447.203 8.0968 448.063C6.26837 448.923 4.62726 450.135 3.26715 451.629C1.90704 453.123 0.854598 454.871 0.169922 456.772L0 457.242L37.2002 470.632L42.5801 455.692L39.6299 454.632Z" fill="#2F2E41"/>
<path d="M221.932 441.973L211.356 448.173L182.406 410.33L198.016 401.179L221.932 441.973Z" fill="#FFB6B6"/>
<path d="M222.61 436.942L219.91 438.522L208.91 444.972L201.78 449.152C200.036 450.172 198.511 451.527 197.291 453.137C196.071 454.748 195.181 456.583 194.671 458.539C194.161 460.494 194.042 462.53 194.319 464.531C194.597 466.533 195.267 468.459 196.29 470.202L196.54 470.632L230.64 450.642L222.61 436.942Z" fill="#2F2E41"/>
<path d="M108.669 64.6937C122.219 64.6937 133.204 53.7089 133.204 40.1585C133.204 26.6081 122.219 15.6234 108.669 15.6234C95.1186 15.6234 84.1338 26.6081 84.1338 40.1585C84.1338 53.7089 95.1186 64.6937 108.669 64.6937Z" fill="#FFB6B6"/>
<path d="M118.157 73.5131L113.018 74.95L94.98 87.8418L75.4584 110.831C75.4584 110.831 68.4484 123.975 71.0771 138.871C73.7058 153.767 79.4684 184.798 79.4684 184.798C79.4684 184.798 127.228 184.471 128.98 181.842C130.733 179.213 131.301 167.272 131.301 167.272L138.311 89.2857C138.311 89.2857 130.425 76.1418 126.044 76.1418C123.216 76.0465 120.477 75.1334 118.157 73.5131Z" fill="#34B3F1"/>
<path d="M129.98 180.842C129.98 180.842 120.786 181.293 114.652 183.045C108.519 184.798 77.7158 183.045 77.7158 183.045L61.2007 248.764L28.98 433.842L53.98 438.842L97.98 304.842L119.98 346.842L188.98 422.842L207.98 410.842L150.98 320.842L138.311 252.269C138.311 252.269 149.703 213.714 133.93 190.055L129.98 180.842Z" fill="#2F2E41"/>
<path opacity="0.2" d="M112.565 118.451L103.803 183.294L94.6123 183.773L112.565 118.451Z" fill="black"/>
<path d="M76.9799 190.842C79.7414 190.842 81.9799 188.155 81.9799 184.842C81.9799 181.528 79.7414 178.842 76.9799 178.842C74.2185 178.842 71.98 181.528 71.98 184.842C71.98 188.155 74.2185 190.842 76.9799 190.842Z" fill="#2F2E41"/>
<path d="M101.957 267.62C102.999 266.583 103.801 265.33 104.307 263.95C104.812 262.569 105.009 261.095 104.883 259.63C104.757 258.165 104.312 256.746 103.578 255.472C102.844 254.198 101.84 253.101 100.637 252.257L110.423 217.888L92.7133 223.475L86.1353 255.256C84.8517 257.372 84.389 259.885 84.8348 262.32C85.2807 264.755 86.6041 266.941 88.5543 268.465C90.5046 269.989 92.9461 270.745 95.4163 270.589C97.8864 270.433 100.214 269.377 101.957 267.62V267.62Z" fill="#FFB6B6"/>
<path d="M121.641 78.2771C121.641 78.2771 133.441 73.1689 140.606 86.0293C147.77 98.8898 137.431 143.588 135.98 150.842C134.529 158.096 102.98 249.842 102.98 249.842L85.98 243.842L121.641 78.2771Z" fill="#34B3F1"/>
<path d="M139.035 0C140.077 1.56718 140.659 3.39442 140.717 5.2753C140.775 7.15618 140.306 9.01574 139.362 10.6439C138.331 8.80518 136.677 7.39492 134.699 6.66695C132.72 5.93898 130.547 5.94111 128.569 6.67296C126.592 7.40481 124.941 8.81831 123.914 10.6591C122.886 12.4999 122.549 14.647 122.963 16.7141C111.046 11.5012 105.225 8.78566 92.833 12.7401C90.0174 13.5547 87.3543 14.8253 84.9497 16.5015C82.3765 18.456 80.3712 21.0616 79.1409 24.0495C77.9106 27.0375 77.4997 30.2997 77.9507 33.4994C85.4849 32.9191 85.0191 34.3388 92.5532 33.7585L92.2061 32.9572C95.2224 38.4793 96.5783 44.7555 96.1104 51.0303C95.6425 57.3051 93.3708 63.3109 89.5689 68.3246C88.4608 69.5548 87.5136 70.9208 86.75 72.3898C86.3766 73.1305 86.2051 73.9566 86.2528 74.7847C86.3006 75.6129 86.5659 76.4138 87.0221 77.1066C87.7578 77.9209 88.7136 78.5047 89.774 78.7874C92.0893 79.5679 94.5389 79.871 96.9746 79.6784C99.4103 79.4859 101.782 78.8017 103.946 77.6671C106.11 76.5326 108.021 74.9712 109.565 73.0774C111.109 71.1835 112.252 68.9964 112.927 66.6482C112.752 70.5576 112.95 75.2258 116.262 77.3091C118.166 78.5062 120.571 78.4458 122.818 78.3459C128.725 78.0831 134.633 77.8204 140.54 77.5576C138.314 76.2648 137.456 73.3816 137.719 70.8203C137.984 68.259 139.138 65.8908 140.081 63.495C145.32 50.1883 141.35 36.0977 133.98 23.8418C139.602 24.0901 147.666 17.8286 148.268 12.2339C148.478 9.42115 147.656 6.62827 145.957 4.37694C144.258 2.1256 141.798 0.56976 139.035 0V0Z" fill="#2F2E41"/>
<path d="M508.443 298.886C508.392 297.767 508.204 296.659 507.883 295.586C507.126 293.117 505.665 290.923 503.679 289.273C501.693 287.623 499.269 286.588 496.703 286.296C496.646 286.291 496.589 286.291 496.533 286.296C496.457 286.275 496.381 286.258 496.303 286.246C491.355 285.64 486.334 286.156 481.613 287.756C474.353 290.186 467.983 295.086 464.913 302.086C463.671 300.391 462.035 299.024 460.146 298.104C458.258 297.184 456.173 296.739 454.073 296.806C451.367 296.985 448.781 297.994 446.67 299.696C444.558 301.398 443.023 303.71 442.273 306.316C442.195 306.635 442.22 306.97 442.344 307.273C442.468 307.577 442.684 307.833 442.963 308.006C443.768 308.692 444.724 309.179 445.753 309.426C447.973 309.896 450.193 310.326 452.433 310.716C456.793 311.476 461.173 312.093 465.573 312.566C474.512 313.526 483.507 313.867 492.493 313.586C495.483 313.486 498.373 313.386 501.113 312.066C503.107 311.084 504.809 309.598 506.053 307.756C507.806 305.144 508.646 302.026 508.443 298.886Z" fill="#E6E6E6"/>
<path d="M269 677.891C277.687 688.185 287.083 697.858 297.12 706.841L676.7 707.841C686.736 698.858 696.133 689.185 704.82 678.891L269 677.891Z" fill="#3F3D56"/>
<path d="M460.69 581.081V683.641H532.54V581.081C532.542 580.344 532.306 579.625 531.869 579.031C531.432 578.437 530.815 577.999 530.11 577.781C529.778 577.671 529.43 577.617 529.08 577.621H464.16C463.705 577.62 463.255 577.709 462.834 577.883C462.413 578.056 462.031 578.311 461.708 578.632C461.386 578.953 461.13 579.335 460.956 579.755C460.781 580.176 460.691 580.626 460.69 581.081V581.081ZM488.73 616.321C488.75 614.299 489.566 612.367 491.002 610.944C492.439 609.521 494.379 608.723 496.4 608.723C498.422 608.723 500.362 609.521 501.799 610.944C503.235 612.367 504.051 614.299 504.07 616.321V628.221C504.06 630.249 503.247 632.189 501.81 633.619C500.373 635.049 498.428 635.852 496.4 635.852C494.373 635.852 492.428 635.049 490.991 633.619C489.553 632.189 488.741 630.249 488.73 628.221V616.321Z" fill="#2F2E41"/>
<path d="M460.47 680.361V690.251C460.472 690.764 460.675 691.254 461.037 691.618C461.398 691.981 461.888 692.187 462.4 692.191H530.83C531.343 692.189 531.834 691.983 532.196 691.62C532.557 691.256 532.76 690.764 532.76 690.251V680.361H460.47Z" fill="#3F3D56"/>
<path d="M347.66 426.561V613.821C347.662 616.208 348.611 618.496 350.298 620.183C351.986 621.87 354.274 622.819 356.66 622.821H634.16C636.547 622.819 638.835 621.87 640.522 620.183C642.209 618.496 643.158 616.208 643.16 613.821V426.561C643.154 424.177 642.204 421.892 640.517 420.207C638.83 418.522 636.544 417.574 634.16 417.571H356.66C354.276 417.574 351.99 418.522 350.303 420.207C348.616 421.892 347.666 424.177 347.66 426.561V426.561Z" fill="#3F3D56"/>
<path d="M354.17 428.891V611.511C354.173 612.786 354.68 614.008 355.582 614.91C356.483 615.811 357.705 616.319 358.98 616.321H631.85C633.125 616.319 634.348 615.811 635.249 614.91C636.151 614.008 636.658 612.786 636.66 611.511V428.891C636.66 427.615 636.154 426.39 635.252 425.487C634.35 424.583 633.127 424.074 631.85 424.071H358.98C357.704 424.074 356.481 424.583 355.579 425.487C354.677 426.39 354.171 427.615 354.17 428.891V428.891Z" fill="#6C63FF"/>
<path d="M409.81 694.521C410.088 694.869 410.441 695.15 410.843 695.342C411.245 695.535 411.685 695.633 412.13 695.631H574.47C574.914 695.631 575.353 695.531 575.753 695.34C576.154 695.149 576.507 694.871 576.787 694.526C577.066 694.181 577.266 693.778 577.37 693.347C577.474 692.915 577.481 692.466 577.39 692.031L574.87 680.061C574.766 679.573 574.541 679.119 574.216 678.74C573.891 678.361 573.477 678.069 573.01 677.891C572.673 677.759 572.313 677.691 571.95 677.691H414.64C414.278 677.691 413.918 677.759 413.58 677.891C413.114 678.069 412.699 678.361 412.375 678.74C412.05 679.119 411.825 679.573 411.72 680.061L409.2 692.031C409.111 692.465 409.119 692.914 409.224 693.345C409.33 693.776 409.53 694.178 409.81 694.521Z" fill="#2F2E41"/>
<path d="M414.64 680.192C414.591 680.191 414.542 680.2 414.495 680.217C414.416 680.244 414.344 680.29 414.287 680.352C414.23 680.413 414.189 680.488 414.168 680.569L411.646 692.546C411.633 692.615 411.635 692.687 411.653 692.755C411.67 692.824 411.703 692.887 411.748 692.942L411.759 692.955C411.803 693.012 411.859 693.057 411.923 693.088C411.988 693.119 412.059 693.133 412.13 693.131H574.47C574.541 693.132 574.611 693.117 574.675 693.086C574.739 693.056 574.796 693.012 574.84 692.956C574.887 692.903 574.922 692.839 574.94 692.77C574.959 692.701 574.961 692.629 574.946 692.559L572.424 680.575C572.405 680.497 572.368 680.424 572.315 680.364C572.262 680.303 572.195 680.256 572.12 680.227C572.066 680.204 572.008 680.192 571.95 680.192H414.64Z" fill="white"/>
<path d="M389.121 450.427H644.444C644.71 450.421 644.962 450.311 645.148 450.122C645.334 449.932 645.437 449.677 645.437 449.411C645.437 449.146 645.334 448.891 645.148 448.701C644.962 448.511 644.71 448.402 644.444 448.396H389.121C388.856 448.402 388.603 448.511 388.417 448.701C388.232 448.891 388.128 449.146 388.128 449.411C388.128 449.677 388.232 449.932 388.417 450.122C388.603 450.311 388.856 450.421 389.121 450.427Z" fill="#3F3D56"/>
<path d="M627.064 443.212C630.351 443.212 633.015 440.488 633.015 437.129C633.015 433.769 630.351 431.046 627.064 431.046C623.778 431.046 621.114 433.769 621.114 437.129C621.114 440.488 623.778 443.212 627.064 443.212Z" fill="#3F3D56"/>
<path d="M606.509 443.212C609.795 443.212 612.459 440.488 612.459 437.129C612.459 433.769 609.795 431.046 606.509 431.046C603.222 431.046 600.558 433.769 600.558 437.129C600.558 440.488 603.222 443.212 606.509 443.212Z" fill="#3F3D56"/>
<path d="M585.952 443.212C589.239 443.212 591.903 440.488 591.903 437.129C591.903 433.769 589.239 431.046 585.952 431.046C582.666 431.046 580.002 433.769 580.002 437.129C580.002 440.488 582.666 443.212 585.952 443.212Z" fill="#3F3D56"/>
<path d="M400.409 433.66C400.409 433.804 400.436 433.946 400.491 434.079C400.545 434.213 400.625 434.334 400.726 434.436C400.828 434.538 400.948 434.619 401.081 434.675C401.213 434.73 401.355 434.759 401.499 434.76H416.099C416.388 434.753 416.662 434.634 416.864 434.427C417.066 434.221 417.179 433.944 417.179 433.655C417.179 433.366 417.066 433.089 416.864 432.883C416.662 432.676 416.388 432.557 416.099 432.55H401.499C401.208 432.554 400.93 432.672 400.725 432.88C400.521 433.088 400.407 433.369 400.409 433.66V433.66Z" fill="#3F3D56"/>
<path d="M400.409 437.81C400.409 437.954 400.436 438.096 400.491 438.23C400.545 438.363 400.625 438.484 400.726 438.586C400.828 438.688 400.948 438.769 401.08 438.825C401.213 438.881 401.355 438.909 401.499 438.91H416.099C416.388 438.904 416.663 438.784 416.865 438.578C417.067 438.371 417.18 438.094 417.18 437.805C417.18 437.516 417.067 437.239 416.865 437.032C416.663 436.826 416.388 436.706 416.099 436.7H401.499C401.208 436.704 400.93 436.822 400.725 437.03C400.521 437.238 400.407 437.519 400.409 437.81V437.81Z" fill="#3F3D56"/>
<path d="M400.409 441.95C400.407 442.242 400.521 442.522 400.725 442.73C400.93 442.938 401.208 443.057 401.499 443.06H416.099C416.388 443.053 416.662 442.934 416.864 442.728C417.066 442.521 417.179 442.244 417.179 441.955C417.179 441.666 417.066 441.389 416.864 441.183C416.662 440.976 416.388 440.857 416.099 440.85H401.499C401.355 440.851 401.213 440.88 401.08 440.935C400.948 440.991 400.828 441.072 400.726 441.174C400.625 441.276 400.545 441.398 400.491 441.531C400.436 441.664 400.409 441.806 400.409 441.95Z" fill="#3F3D56"/>
<path d="M585.034 480.222H405.796C403.442 480.225 401.184 481.161 399.519 482.826C397.854 484.491 396.918 486.749 396.915 489.103V576.34C396.918 578.695 397.854 580.952 399.519 582.617C401.184 584.283 403.442 585.219 405.796 585.222H585.034C587.388 585.219 589.646 584.283 591.311 582.617C592.976 580.952 593.912 578.695 593.915 576.34V489.103C593.912 486.749 592.976 484.491 591.311 482.826C589.646 481.161 587.388 480.225 585.034 480.222ZM591.915 489.103V514.555H528.915V482.222H585.034C586.858 482.224 588.607 482.95 589.897 484.24C591.187 485.53 591.913 487.279 591.915 489.103H591.915ZM463.915 548.889V516.555H526.915V548.889H463.915ZM526.915 550.889V583.222H463.915V550.889H526.915ZM461.915 548.889H398.915V516.555H461.915V548.889ZM463.915 514.555V482.222H526.915V514.555H463.915ZM528.915 516.555H591.915V548.889H528.915V516.555ZM405.796 482.222H461.915V514.555H398.915V489.103C398.917 487.279 399.643 485.53 400.933 484.24C402.223 482.95 403.972 482.224 405.796 482.222V482.222ZM398.915 576.34V550.889H461.915V583.222H405.796C403.972 583.22 402.223 582.494 400.933 581.204C399.643 579.914 398.917 578.165 398.915 576.34V576.34ZM585.034 583.222H528.915V550.889H591.915V576.34C591.913 578.165 591.188 579.914 589.897 581.204C588.607 582.494 586.858 583.22 585.034 583.222H585.034Z" fill="#3F3D56"/>
<path d="M486.305 502.37C484.715 499.739 482.83 496.931 479.878 496.072C476.46 495.077 472.949 497.053 469.97 499.003C461.063 504.835 452.485 511.155 444.275 517.935L444.284 518.037L463.458 516.715C468.076 516.396 472.852 516.034 476.933 513.849C478.482 513.02 479.991 511.913 481.746 511.836C483.926 511.74 485.827 513.263 487.32 514.853C496.157 524.263 498.714 538.653 508.628 546.92C502.377 531.503 494.912 516.607 486.305 502.37V502.37Z" fill="white"/>
<path d="M540.622 582.181C539.645 580.947 539.246 580.658 538.282 579.413C530.433 569.262 523.057 558.769 516.151 547.932C511.461 540.572 507.003 533.071 502.778 525.429C500.766 521.796 498.81 518.134 496.909 514.444C495.433 511.582 493.991 508.704 492.581 505.808C492.178 504.981 491.787 504.15 491.397 503.318C490.479 501.359 489.577 499.391 488.61 497.46C487.61 495.141 486.079 493.089 484.14 491.471C483.218 490.77 482.116 490.346 480.963 490.248C479.338 490.258 477.747 490.713 476.364 491.566C465.893 497.071 456.119 503.81 447.252 511.641C438.371 519.44 430.434 528.252 423.6 537.896C423.391 538.194 422.897 537.909 423.108 537.608C423.939 536.433 424.786 535.271 425.65 534.122C436.391 519.837 449.56 507.553 464.557 497.831C467.08 496.195 469.651 494.637 472.269 493.155C473.588 492.408 474.913 491.671 476.261 490.978C477.553 490.221 479.002 489.772 480.495 489.667C485.632 489.587 488.292 495.405 490.119 499.319C490.694 500.551 491.275 501.779 491.863 503.004C494.085 507.652 496.393 512.258 498.787 516.822C500.264 519.64 501.774 522.441 503.316 525.226C508.115 533.897 513.215 542.393 518.617 550.714C525.774 561.735 532.873 571.472 541.025 581.778C541.25 582.063 540.848 582.47 540.622 582.181Z" fill="white"/>
<path d="M446.744 508.768C446.446 508.436 446.149 508.103 445.849 507.77C443.48 505.15 440.938 502.561 437.685 501.059C436.134 500.32 434.441 499.928 432.723 499.909C430.95 499.957 429.202 500.338 427.57 501.032C426.795 501.342 426.036 501.694 425.289 502.068C424.435 502.498 423.597 502.956 422.762 503.418C421.195 504.285 419.649 505.19 418.123 506.133C415.087 508.01 412.146 510.03 409.299 512.193C407.824 513.314 406.379 514.473 404.964 515.668C403.649 516.778 402.36 517.919 401.097 519.088C400.827 519.337 400.424 518.934 400.694 518.685C401.027 518.375 401.364 518.067 401.7 517.763C402.651 516.904 403.616 516.061 404.598 515.235C406.387 513.725 408.222 512.274 410.104 510.881C413.03 508.713 416.056 506.693 419.184 504.82C420.747 503.884 422.331 502.988 423.937 502.131C424.422 501.873 424.912 501.62 425.409 501.38C426.535 500.812 427.704 500.336 428.907 499.956C430.61 499.405 432.412 499.228 434.19 499.437C435.907 499.687 437.561 500.259 439.065 501.124C442.259 502.909 444.737 505.669 447.147 508.364C447.391 508.637 446.99 509.042 446.744 508.768Z" fill="white"/>
<path d="M512.19 535.918L519.844 533.118L523.644 531.728C524.872 531.234 526.124 530.803 527.396 530.436C528.507 530.119 529.688 530.134 530.791 530.48C531.775 530.844 532.676 531.402 533.44 532.121C534.22 532.84 534.946 533.616 535.612 534.441C536.44 535.436 537.255 536.44 538.074 537.442C541.453 541.575 544.81 545.725 548.145 549.894C551.48 554.063 554.793 558.249 558.084 562.453C561.382 566.667 564.658 570.899 567.911 575.149C568.31 575.669 568.708 576.19 569.106 576.711C569.325 576.999 569.821 576.715 569.598 576.423C566.321 572.131 563.021 567.856 559.698 563.599C556.367 559.332 553.013 555.083 549.636 550.852C546.259 546.621 542.859 542.408 539.437 538.214C538.584 537.169 537.73 536.125 536.875 535.082C536.153 534.203 535.44 533.314 534.648 532.495C533.974 531.683 533.147 531.012 532.213 530.52C531.279 530.028 530.258 529.725 529.207 529.629C527.934 529.673 526.68 529.949 525.506 530.442C524.227 530.905 522.95 531.377 521.672 531.844L513.965 534.663L512.038 535.368C511.696 535.493 511.844 536.044 512.19 535.918V535.918Z" fill="white"/>
<path d="M436.678 504.356C434.711 503.387 432.522 502.958 430.335 503.115C428.148 503.271 426.042 504.007 424.233 505.246C431.05 506.422 437.793 507.996 444.427 509.959C441.672 508.344 439.517 505.815 436.678 504.356Z" fill="white"/>
<path d="M424.195 505.239L423.446 505.847C423.699 505.634 423.962 505.434 424.233 505.245L424.195 505.239Z" fill="white"/>
<path d="M533.151 535.946C532.481 534.958 531.548 534.179 530.456 533.696L529.404 533.737C537.413 547.89 548.23 560.256 561.191 570.077L533.151 535.946Z" fill="white"/>
<path d="M528.229 520.45C531.576 520.45 534.288 517.738 534.288 514.392C534.288 511.045 531.576 508.333 528.229 508.333C524.883 508.333 522.17 511.045 522.17 514.392C522.17 517.738 524.883 520.45 528.229 520.45Z" fill="white"/>
<path d="M616.154 581.722C617.347 581.72 618.491 581.245 619.334 580.402C620.178 579.558 620.653 578.415 620.654 577.222V484.222C620.654 483.028 620.18 481.884 619.336 481.04C618.492 480.196 617.348 479.722 616.154 479.722C614.961 479.722 613.816 480.196 612.972 481.04C612.128 481.884 611.654 483.028 611.654 484.222V577.222C611.656 578.415 612.131 579.558 612.974 580.402C613.818 581.245 614.961 581.72 616.154 581.722V581.722Z" fill="#3F3D56"/>
<path d="M616.154 581.722C617.347 581.72 618.491 581.245 619.334 580.402C620.178 579.558 620.653 578.415 620.654 577.222V557.502C620.136 556.795 619.458 556.221 618.677 555.824C617.895 555.428 617.031 555.222 616.154 555.222C615.278 555.222 614.414 555.428 613.632 555.824C612.85 556.221 612.173 556.795 611.654 557.502V577.222C611.656 578.415 612.131 579.558 612.974 580.402C613.818 581.245 614.961 581.72 616.154 581.722V581.722Z" fill="#2F2E41"/>
<path d="M616.154 562.722C617.437 562.72 618.667 562.209 619.574 561.302C620.481 560.395 620.992 559.165 620.994 557.882V536.674C620.436 535.914 619.708 535.296 618.867 534.87C618.026 534.444 617.097 534.222 616.154 534.222C615.211 534.222 614.282 534.444 613.441 534.87C612.601 535.296 611.872 535.914 611.314 536.674V557.882C611.316 559.165 611.827 560.395 612.734 561.302C613.641 562.209 614.871 562.72 616.154 562.722V562.722Z" fill="#6C63FF"/>
<path d="M616.154 558.866C617.09 558.864 617.987 558.492 618.649 557.83C619.311 557.168 619.683 556.271 619.684 555.336V539.867C619.278 539.312 618.746 538.862 618.133 538.551C617.52 538.24 616.842 538.078 616.154 538.078C615.467 538.078 614.789 538.24 614.176 538.551C613.563 538.862 613.031 539.312 612.625 539.867V555.336C612.626 556.271 612.998 557.168 613.66 557.83C614.322 558.492 615.219 558.864 616.154 558.866V558.866Z" fill="#3F3D56"/>
<path d="M477.331 686.2C476.541 685.493 476.064 684.501 476.004 683.442C475.945 682.383 476.308 681.344 477.014 680.552L516.33 636.561C516.68 636.169 517.103 635.85 517.577 635.622C518.05 635.394 518.563 635.262 519.088 635.232C519.612 635.203 520.138 635.277 520.633 635.451C521.129 635.624 521.586 635.894 521.978 636.244C522.369 636.594 522.688 637.017 522.916 637.491C523.144 637.964 523.276 638.477 523.306 639.002C523.335 639.526 523.261 640.052 523.088 640.547C522.914 641.043 522.645 641.5 522.295 641.892L482.979 685.883C482.271 686.673 481.279 687.15 480.22 687.21C479.161 687.269 478.122 686.906 477.331 686.2Z" fill="#6C63FF"/>
<path d="M803.482 758.631C803.482 765.921 801.762 771.501 801.972 775.961C790.177 781.109 778.05 785.459 765.672 788.981C764.272 789.381 762.872 789.761 761.462 790.141C753.832 766.781 746.192 745.391 743.182 743.121C736.292 737.951 732.842 759.341 732.842 754.171C732.842 749.001 736.292 749.001 727.682 742.111C719.062 735.221 724.232 704.211 724.232 704.211L712.172 673.201L725.662 623.741L743.182 559.491H760.412C760.412 559.491 760.922 559.861 761.772 560.551C766.082 564.071 779.082 575.831 777.642 588.781C777.212 592.641 778.172 603.861 779.842 618.801C784.922 663.911 796.592 712.951 796.592 725.891C796.592 743.121 803.482 748.291 803.482 758.631Z" fill="#E6E6E6"/>
<path d="M789.034 618.632C789.014 618.582 789.004 618.542 788.984 618.502C788.598 617.461 788.147 616.446 787.634 615.462C784.724 609.992 787.804 601.592 784.524 592.312C779.224 577.272 772.764 568.402 763.294 560.452C763.014 560.212 762.734 559.982 762.444 559.742L762.434 559.732C756.114 554.542 748.494 549.692 739.034 543.652C737.064 542.392 735.004 541.082 732.864 539.702C730.104 537.932 730.254 532.032 730.414 525.792C730.594 518.862 730.784 511.682 727.384 507.202L727.164 506.912L726.814 506.822C715.157 504.516 703.267 503.6 691.394 504.092H691.384C686.343 504.279 681.337 505.013 676.454 506.282C676.094 506.382 675.734 506.482 675.384 506.602C675.114 506.672 674.844 506.762 674.574 506.852L674.354 506.932L674.184 507.092C670.894 510.382 670.134 516.282 669.774 522.432V522.442C669.704 523.562 669.644 524.682 669.594 525.802C669.314 531.782 669.054 537.432 666.854 539.882C661.947 545.441 656.016 550.004 649.384 553.322C639.054 558.422 630.884 558.262 630.764 558.262L629.814 558.232L629.724 559.172C622.864 572.242 623.124 605.962 622.914 642.072C622.904 644.082 622.891 646.102 622.874 648.132C622.754 664.952 622.434 682.062 621.174 697.652C620.624 704.352 619.914 710.762 618.964 716.752C614.344 745.922 593.414 721.702 583.404 741.112C583.733 743.021 584.287 744.884 585.054 746.662C586.204 747.342 587.384 748.002 588.554 748.662C593.744 751.552 599.031 754.249 604.414 756.752C604.714 756.892 605.014 757.032 605.314 757.162C615.188 761.731 625.366 765.613 635.774 768.782C637.804 769.402 639.834 769.992 641.884 770.552C660.018 775.558 678.69 778.355 697.494 778.882C697.571 778.873 697.648 778.87 697.724 778.872C719.963 778.257 742.057 775.073 763.564 769.382C763.864 769.302 764.164 769.222 764.464 769.142C765.874 768.762 767.274 768.382 768.674 767.982C781.052 764.46 793.18 760.11 804.974 754.962C804.987 755.401 805.03 755.839 805.104 756.272C805.115 756.413 805.135 756.553 805.164 756.692C805.184 756.532 805.204 756.372 805.214 756.212C805.274 755.742 805.324 755.262 805.374 754.782C811.495 695.102 798.784 644.432 789.034 618.632Z" fill="#3F3D56"/>
<path d="M651.6 472.365C657.704 483.525 667.426 492.275 679.166 497.172C690.907 502.069 703.964 502.822 716.19 499.306C728.415 495.791 739.078 488.216 746.424 477.831C753.769 467.446 757.359 454.868 756.602 442.17C755.844 429.472 750.785 417.411 742.257 407.972C733.729 398.534 722.241 392.281 709.685 390.243C697.128 388.206 684.252 390.506 673.178 396.763C662.103 403.021 653.489 412.864 648.756 424.671C648.499 425.312 648.269 425.953 648.038 426.619C645.362 434.062 644.296 441.988 644.91 449.874C645.524 457.76 647.804 465.425 651.6 472.365V472.365Z" fill="#FFB6B6"/>
<path d="M664.921 427.818C667.33 421.078 666.279 424.589 668.714 417.874C667.125 423.82 669.636 427.152 669.406 427.818H736.064V389.069C716.535 381.329 697.442 374.743 685.91 389.069C675.633 389.069 665.777 393.152 658.511 400.419C651.244 407.685 647.161 417.541 647.161 427.818H664.921Z" fill="#2F2E41"/>
<path d="M667.182 534.333C667.233 533.615 667.31 532.872 667.412 532.154C668.13 526.875 669.924 521.801 671.744 516.778C673.666 511.37 675.613 505.937 677.561 500.53C675.053 510.345 675.818 520.711 679.739 530.053C690.99 521.288 683.891 501.247 698.601 501.247C733.968 501.247 770.359 472.57 770.359 437.178C770.359 401.811 755.188 375.363 719.821 375.363C684.429 375.363 655.726 391.56 655.034 426.927C698.601 437.178 658.955 530.745 667.182 534.333Z" fill="#2F2E41"/>
<path d="M787.308 432.956C809.954 432.956 828.312 414.598 828.312 391.951C828.312 369.305 809.954 350.947 787.308 350.947C764.662 350.947 746.303 369.305 746.303 391.951C746.303 414.598 764.662 432.956 787.308 432.956Z" fill="#2F2E41"/>
<path opacity="0.2" d="M829.864 625.912C829.724 628.022 829.601 630.269 829.494 632.652C813.914 615.872 646.074 690.832 575.014 735.862C573.824 715.052 573.064 694.182 572.784 682.252C572.694 679.072 572.664 676.522 572.654 674.782C573.714 667.202 590.754 658.602 615.604 650.432C617.954 649.662 620.384 648.892 622.874 648.132C629.594 646.062 636.774 644.032 644.274 642.072C663.374 637.072 684.584 632.482 705.634 628.692C716.024 626.832 726.374 625.162 736.424 623.742C754.054 621.242 770.734 619.512 785.004 618.802C786.374 618.732 787.714 618.672 789.034 618.632C790.454 618.572 791.844 618.532 793.204 618.502C813.764 618.052 827.804 620.192 829.864 625.912Z" fill="black"/>
<path d="M488.533 677.925C490.107 679.909 492.097 681.524 494.362 682.656C496.628 683.788 499.114 684.41 501.646 684.477C504.177 684.544 506.693 684.056 509.016 683.045C511.338 682.035 513.411 680.528 515.088 678.63L572.036 702.019L565.891 670.623L512.754 653.226C509.379 650.62 505.165 649.342 500.911 649.636C496.657 649.929 492.658 651.772 489.673 654.817C486.687 657.861 484.922 661.895 484.712 666.154C484.502 670.413 485.861 674.601 488.533 677.925V677.925Z" fill="#FFB6B6"/>
<path d="M677.967 547.184L677.655 547.151L644.446 549.562C640.23 549.868 636.127 551.067 632.41 553.08C628.693 555.093 625.446 557.874 622.885 561.237C621.695 562.796 620.665 564.47 619.81 566.235L619.802 566.24C616.939 572.098 616.076 578.733 617.346 585.128L632.98 663.831L595.362 660.413L581.63 662.76L565.425 656.222L532.174 656.788L531.403 659.336L524.427 682.46L523.88 684.277L574.655 716.273L589.376 711.795L596.311 717.122L596.644 717.131L610.396 717.403L669.044 718.552L685.075 690.151L687.58 685.698C706.198 643.989 710.792 614.872 709.335 594.813C708.571 584.214 706.121 576.158 703.154 570.086C693.982 551.324 678.613 547.343 677.967 547.184Z" fill="#3F3D56"/>
<path d="M792.494 428.356C784.718 426.608 777.509 422.925 771.535 417.649C765.561 412.373 761.016 405.674 758.321 398.173C755.915 391.195 755.007 383.533 750.969 377.323C757.121 368.875 762.054 359.604 765.623 349.782C767.005 345.979 770.241 339.077 764.755 336.985C760.385 335.318 755.42 339.34 752.829 342.514C750.861 344.919 749.45 347.73 748.696 350.745C747.803 346.8 746.909 342.855 746.016 338.91C745.902 338.531 745.647 338.211 745.303 338.016C744.96 337.821 744.554 337.766 744.171 337.862C736.849 339.11 731.539 345.89 730.616 353.031C730.113 356.707 730.949 360.442 732.973 363.552C735.325 367.131 738.769 369.696 742.046 372.362C745.532 375.198 748.487 378.218 750.361 382.365C752.308 386.675 753.185 391.392 754.477 395.917C756.93 404.61 761.681 412.48 768.232 418.698C774.782 424.916 782.888 429.252 791.697 431.249C793.578 431.66 794.382 428.769 792.494 428.356ZM751.147 356.64C750.912 352.872 751.907 349.129 753.984 345.976C755.024 344.377 756.327 342.966 757.838 341.802C759.27 340.708 761.383 339.258 763.278 339.66C765.736 340.182 764.747 342.925 764.225 344.58C763.536 346.762 762.779 348.922 761.953 351.058C760.345 355.207 758.478 359.251 756.363 363.166C755.265 365.203 754.092 367.198 752.867 369.16C752.022 365.431 751.178 361.701 750.333 357.972C750.599 357.875 750.824 357.69 750.972 357.448C751.12 357.206 751.182 356.922 751.147 356.64V356.64ZM733.627 357.237C733.137 353.83 733.848 350.357 735.64 347.417C737.431 344.477 740.191 342.253 743.444 341.127C745.826 351.64 748.207 362.154 750.588 372.668C750.096 373.392 749.589 374.106 749.081 374.819C748.948 374.666 748.827 374.508 748.688 374.357C743.694 368.922 734.985 365.217 733.627 357.237V357.237Z" fill="#6C63FF"/>
<path d="M829.632 646.405C829.493 648.45 829.369 650.628 829.263 652.939C827.144 696.46 828.973 755.046 814.695 786.836C811.497 788.533 808.267 790.155 805.003 791.703C804.873 791.761 804.753 791.819 804.643 791.877C803.764 792.294 802.884 792.701 802.005 793.089C801.973 793.116 801.935 793.136 801.895 793.147C792.239 797.574 782.289 801.367 772.109 804.5C770.86 804.888 769.601 805.256 768.342 805.625C768.073 805.702 767.803 805.78 767.533 805.857C748.356 811.36 728.53 814.452 708.541 815.058C707.502 815.087 706.483 815.106 705.494 815.126C705.144 815.135 704.804 815.145 704.465 815.145C703.346 815.155 702.236 815.165 701.118 815.165C698.859 815.165 696.611 815.132 694.373 815.068C675.584 814.556 656.927 811.845 638.808 806.992C636.76 806.449 634.732 805.877 632.703 805.276C622.303 802.204 612.134 798.44 602.268 794.01C601.968 793.884 601.669 793.748 601.369 793.613C595.993 791.189 590.711 788.575 585.522 785.77C584.353 785.13 583.174 784.49 582.025 783.831C581.258 782.106 580.705 780.3 580.376 778.45C578.108 767.873 576.289 775.008 574.99 753.001C573.801 732.825 573.042 712.592 572.762 701.026C572.672 697.943 572.642 695.471 572.632 693.784C573.692 686.435 590.718 678.097 615.547 670.177C617.895 669.43 620.323 668.684 622.811 667.947C629.526 665.94 636.7 663.972 644.194 662.072C663.278 657.224 684.471 652.774 705.504 649.1C715.885 647.297 726.227 645.678 736.269 644.301C753.884 641.877 770.551 640.2 784.809 639.512C786.178 639.444 787.517 639.386 788.836 639.347C790.255 639.289 791.643 639.25 793.002 639.221C813.546 638.785 827.574 640.859 829.632 646.405Z" fill="#2F2E41"/>
</svg>
