
<svg width="297" height="214" viewBox="0 0 297 214" fill="none" xmlns="http://www.w3.org/2000/svg">
<path d="M271.643 192.072C274.252 196.714 272.04 212.394 272.04 212.394C272.04 212.394 257.551 206.22 254.942 201.58C253.693 199.351 253.373 196.713 254.054 194.247C254.735 191.781 256.361 189.688 258.574 188.428C260.787 187.168 263.407 186.844 265.858 187.527C268.308 188.21 270.389 189.845 271.643 192.072V192.072Z" fill="#F1F1F1"/>
<path d="M272.25 212.374L271.942 212.439C268.977 198.262 258.625 188.648 258.521 188.552L258.732 188.318C258.837 188.414 269.263 198.093 272.25 212.374Z" fill="white"/>
<path d="M295.35 197.358C291.809 203.823 271.848 212.581 271.848 212.581C271.848 212.581 268.557 190.914 272.096 184.451C273.796 181.347 276.652 179.05 280.034 178.066C283.417 177.081 287.05 177.489 290.134 179.201C293.217 180.912 295.499 183.787 296.477 187.192C297.456 190.597 297.05 194.254 295.35 197.358Z" fill="#F1F1F1"/>
<path d="M272.024 212.815L271.724 212.497C286.168 198.689 289.908 179.431 289.944 179.238L290.372 179.319C290.335 179.513 286.573 198.907 272.024 212.815Z" fill="white"/>
<path d="M69.9424 148.404C67.658 148.397 65.3836 148.1 63.1725 147.523L62.7366 147.401L62.3324 147.197C47.7163 139.821 35.3855 130.077 25.6825 118.238C17.6504 108.379 11.3882 97.1863 7.17756 85.1618C2.14224 70.7654 -0.28024 55.575 0.0257588 40.3156C0.0319332 39.9953 0.0371588 39.748 0.0371588 39.5776C0.0371588 32.1599 4.12756 25.6514 10.4579 22.9963C15.3029 20.9642 59.2927 2.77666 62.471 1.46255C68.4568 -1.55647 74.8425 0.963378 75.8644 1.40403C78.1565 2.34737 118.822 19.09 127.61 23.3021C136.667 27.6433 139.083 35.4421 139.083 39.3658C139.083 57.1297 136.027 73.7314 129.999 88.71C125.131 100.834 118.232 112.027 109.601 121.801C92.9492 140.664 76.2931 147.35 76.1323 147.409C74.1417 148.099 72.0474 148.435 69.9424 148.404ZM66.0254 138.638C67.4695 138.964 70.7941 139.452 72.9611 138.657C75.7139 137.646 89.6548 130.369 102.682 115.612C120.682 95.223 129.814 69.5921 129.828 39.4314C129.796 38.8203 129.365 34.4622 123.631 31.714C115.013 27.5833 72.7448 10.1857 72.3188 10.0103L72.202 9.9605C71.3162 9.58685 68.4971 8.79983 66.5539 9.82486L66.1648 10.0074C65.6937 10.2022 18.998 29.5077 14.0179 31.5964C10.5341 33.0575 9.29289 36.6773 9.29289 39.5776C9.29289 39.7895 9.28744 40.0978 9.27975 40.4963C8.88173 61.1334 13.626 111.915 66.0254 138.638Z" fill="#3F3D56"/>
<path d="M64.4061 5.69804C64.4061 5.69804 17.286 25.1786 12.2374 27.2961C7.18882 29.4135 4.66454 34.4954 4.66454 39.5773C4.66454 44.6592 0.878108 110.971 64.4061 143.033C64.4061 143.033 70.1719 144.639 74.5463 143.033C78.9208 141.427 134.455 114.323 134.455 39.3656C134.455 39.3656 134.455 31.7427 125.62 27.5078C116.785 23.2729 74.0693 5.69804 74.0693 5.69804C74.0693 5.69804 68.8236 3.36884 64.4061 5.69804Z" fill="#6C63FF"/>
<path opacity="0.1" d="M69.4549 20.9441V124.866C69.4549 124.866 21.9141 101.831 22.3348 41.2717L69.4549 20.9441Z" fill="black"/>
<path d="M70.0748 95.6342L54.9307 76.0336L63.7376 69.1388L70.9084 78.4192L95.1323 52.6787L103.233 60.4042L70.0748 95.6342Z" fill="white"/>
<path d="M198.749 207.748L204.366 207.748L207.039 185.938L198.748 185.939L198.749 207.748Z" fill="#FFB8B8"/>
<path d="M197.316 205.901L208.379 205.901H208.379C210.249 205.901 212.042 206.649 213.364 207.979C214.686 209.31 215.429 211.115 215.429 212.997V213.228L197.317 213.228L197.316 205.901Z" fill="#2F2E41"/>
<path d="M217.636 207.748L223.253 207.748L225.925 185.938L217.635 185.939L217.636 207.748Z" fill="#FFB8B8"/>
<path d="M216.203 205.901L227.265 205.901H227.265C229.135 205.901 230.928 206.649 232.25 207.979C233.572 209.31 234.315 211.115 234.315 212.997V213.228L216.203 213.228L216.203 205.901Z" fill="#2F2E41"/>
<path d="M207.578 131.159L208.925 200.349L198.025 199.669L190.463 155.599L188.075 125.55L207.578 131.159Z" fill="#2F2E41"/>
<path d="M226.285 119.54L227.812 201.445L215.1 201.08L212.354 152.393L207.578 134.765L188.075 125.55L191.259 103.515L219.916 103.114L226.285 119.54Z" fill="#2F2E41"/>
<path d="M204.368 46.224C209.751 46.224 214.116 41.831 214.116 36.4119C214.116 30.9929 209.751 26.5999 204.368 26.5999C198.984 26.5999 194.62 30.9929 194.62 36.4119C194.62 41.831 198.984 46.224 204.368 46.224Z" fill="#FFB8B8"/>
<path d="M212.453 50.3572L213.946 52.6341L217.927 63.8519L214.742 107.521L196.036 107.922L193.648 57.8421L198.65 51.5479L212.453 50.3572Z" fill="#CCCCCC"/>
<path d="M186.085 59.0439L182.901 58.6433C182.901 58.6433 182.105 59.0439 181.707 61.8484C181.309 64.6529 176.533 89.4926 176.533 89.4926L182.901 119.941L190.065 110.326L185.687 93.499L190.065 76.6721L186.085 59.0439Z" fill="#2F2E41"/>
<path d="M226.683 58.6438H229.071L235.041 91.0952L229.469 116.336L223.897 107.121L225.489 97.105L224.693 88.2911L221.907 83.0824L226.683 58.6438Z" fill="#2F2E41"/>
<path d="M210.128 36.4121L208.355 35.9661C208.355 35.9661 207.026 28.384 203.925 29.276C200.823 30.168 192.848 31.06 192.848 27.492C192.848 23.9239 200.38 20.8019 204.811 21.2479C209.242 21.6939 214.9 23.1735 216.331 29.722C218.624 40.2195 211.6 42.871 211.6 42.871L211.717 42.4888C212.041 41.4275 212.064 40.2961 211.784 39.2222C211.503 38.1484 210.929 37.175 210.128 36.4121V36.4121Z" fill="#2F2E41"/>
<path d="M183.299 58.6433L196.035 53.435L199.02 51.2315L207.976 91.0951L212.155 50.0295L228.672 58.6433L223.1 85.8868L222.304 96.3034L224.692 104.717C224.692 104.717 233.051 110.726 230.264 117.137C227.478 123.547 224.294 123.948 224.294 123.948C224.294 123.948 210.762 111.127 209.966 107.922C209.17 104.717 207.976 99.1079 207.976 99.1079C207.976 99.1079 201.209 124.749 193.249 124.348C185.289 123.948 185.289 115.534 185.289 115.534L187.279 106.72L190.463 97.5053L188.871 82.281L183.299 58.6433Z" fill="#2F2E41"/>
</svg>
