
<svg width="404" height="225" viewBox="0 0 404 225" fill="none" xmlns="http://www.w3.org/2000/svg">
<path d="M227.169 10.1676C229.1 10.1676 230.665 8.56906 230.665 6.59721C230.665 4.62536 229.1 3.02686 227.169 3.02686C225.238 3.02686 223.673 4.62536 223.673 6.59721C223.673 8.56906 225.238 10.1676 227.169 10.1676Z" fill="#F2F2F2"/>
<path d="M227.169 24.3971C229.1 24.3971 230.665 22.7986 230.665 20.8267C230.665 18.8548 229.1 17.2563 227.169 17.2563C225.238 17.2563 223.673 18.8548 223.673 20.8267C223.673 22.7986 225.238 24.3971 227.169 24.3971Z" fill="#F2F2F2"/>
<path d="M241.764 10.1676C243.694 10.1676 245.259 8.56906 245.259 6.59721C245.259 4.62536 243.694 3.02686 241.764 3.02686C239.833 3.02686 238.268 4.62536 238.268 6.59721C238.268 8.56906 239.833 10.1676 241.764 10.1676Z" fill="#F2F2F2"/>
<path d="M241.764 24.3971C243.694 24.3971 245.259 22.7986 245.259 20.8267C245.259 18.8548 243.694 17.2563 241.764 17.2563C239.833 17.2563 238.268 18.8548 238.268 20.8267C238.268 22.7986 239.833 24.3971 241.764 24.3971Z" fill="#F2F2F2"/>
<path d="M377.669 162.976H351.717C351.717 163.738 324.971 164.356 324.971 164.356C324.552 164.679 324.169 165.05 323.831 165.461C322.815 166.698 322.26 168.262 322.263 169.877V170.981C322.264 172.812 322.976 174.567 324.243 175.861C325.51 177.155 327.228 177.882 329.02 177.883H377.669C379.46 177.881 381.178 177.154 382.445 175.86C383.712 174.566 384.424 172.811 384.426 170.981V169.877C384.423 168.048 383.71 166.294 382.444 165C381.177 163.707 379.46 162.979 377.669 162.976V162.976Z" fill="#3F3D56"/>
<path d="M357.125 177.608H350.098V223.985H357.125V177.608Z" fill="#3F3D56"/>
<path d="M377.125 223.733C377.125 224.508 366.476 224.033 353.341 224.033C340.206 224.033 329.557 224.508 329.557 223.733C329.557 222.957 340.206 216.808 353.341 216.808C366.476 216.808 377.125 222.957 377.125 223.733Z" fill="#3F3D56"/>
<path d="M318.201 217.633L311.574 217.633L308.421 191.525L318.202 191.525L318.201 217.633Z" fill="#FFB8B8"/>
<path d="M306.84 215.699H319.621V223.918H298.793C298.793 221.738 299.641 219.647 301.15 218.106C302.659 216.565 304.706 215.699 306.84 215.699V215.699Z" fill="#2F2E41"/>
<path d="M307.856 213.854L301.534 211.828L306.178 185.954L315.51 188.945L307.856 213.854Z" fill="#FFB8B8"/>
<path d="M297.584 208.535L309.778 212.444L307.368 220.286L287.496 213.916C287.813 212.886 288.325 211.93 289.003 211.103C289.681 210.275 290.512 209.592 291.449 209.092C292.386 208.592 293.409 208.286 294.462 208.19C295.515 208.095 296.575 208.212 297.584 208.535V208.535Z" fill="#2F2E41"/>
<path d="M359.92 158.451C359.767 157.135 359.492 155.838 359.099 154.575L357.861 152.985L354.639 148.855L354.499 148.861C354.261 148.872 353.271 148.927 351.742 149.049H351.726C350.78 149.126 349.623 149.225 348.309 149.352C347.963 149.391 347.601 149.424 347.228 149.463V155.227H353.985C354.314 155.227 354.631 155.349 354.877 155.571C355.124 155.792 355.283 156.098 355.326 156.43C355.331 156.491 355.337 156.546 355.337 156.607C355.336 156.973 355.194 157.324 354.941 157.583C354.687 157.842 354.344 157.987 353.985 157.987H314.742C314.242 158.326 313.762 158.695 313.304 159.091C311.921 160.184 310.925 161.708 310.466 163.431C308.174 173.722 303.996 192.913 302.763 198.55C302.674 198.975 302.694 199.416 302.822 199.83C302.95 200.244 303.181 200.617 303.493 200.913C303.723 201.132 303.993 201.303 304.288 201.415L309.163 203.281C309.364 203.357 309.573 203.407 309.785 203.43C309.812 203.43 309.834 203.436 309.861 203.436C309.911 203.44 309.961 203.442 310.012 203.441C310.505 203.439 310.986 203.286 311.392 203C311.798 202.714 312.11 202.31 312.288 201.84L316.136 191.527L322.066 175.627L324.412 169.338C327.131 169.99 349.942 175.146 357.58 166.837C358.333 166.019 358.928 165.061 359.331 164.016C359.974 162.239 360.176 160.327 359.92 158.451Z" fill="#2F2E41"/>
<path d="M366.537 159.952C366.418 159.461 366.283 158.953 366.126 158.439L361.666 152.72L361.526 152.725C361.245 152.742 359.91 152.814 357.861 152.985C355.537 153.183 352.288 153.504 348.639 154.006C348.531 154.017 348.418 154.034 348.31 154.05C347.953 154.1 347.591 154.15 347.228 154.205V155.226H353.985C354.314 155.227 354.631 155.349 354.877 155.57C355.124 155.792 355.283 156.097 355.326 156.43C355.331 156.491 355.337 156.546 355.337 156.606C355.336 156.973 355.194 157.323 354.941 157.582C354.687 157.841 354.344 157.987 353.985 157.987H330.104C329.061 158.335 328.055 158.699 327.093 159.091C322.045 161.134 318.266 163.811 317.493 167.295C317.234 168.466 316.947 169.752 316.645 171.121C315.52 176.211 314.153 182.445 312.915 188.109V188.115C312.661 189.285 312.407 190.422 312.163 191.527C311.131 196.275 310.255 200.299 309.79 202.414C309.78 202.475 309.769 202.53 309.758 202.591V202.602C309.704 203.029 309.756 203.464 309.909 203.866L309.915 203.872V203.877C310.063 204.262 310.305 204.602 310.618 204.865C310.826 205.041 311.062 205.181 311.315 205.279L316.191 207.145C316.462 207.249 316.749 207.303 317.039 207.306C317.445 207.307 317.845 207.202 318.201 207.002C318.712 206.719 319.107 206.259 319.315 205.705L329.812 177.57L331.439 173.203C334.158 173.854 356.969 179.005 364.607 170.702C366.116 169.033 366.977 166.86 367.028 164.59C367.082 163.028 366.916 161.466 366.537 159.952V159.952Z" fill="#2F2E41"/>
<path d="M365.936 111.246C365.85 111.141 365.758 111.036 365.661 110.937C364.221 109.391 362.443 108.215 360.473 107.506C358.503 106.797 356.396 106.574 354.325 106.857C352.519 107.099 350.73 107.459 348.969 107.933C346.694 108.531 344.611 109.724 342.926 111.395C341.613 112.695 340.579 114.259 339.889 115.989C339.2 117.719 338.87 119.576 338.92 121.443C338.942 122.199 338.947 122.972 338.936 123.756C338.936 124.121 338.931 124.491 338.926 124.861H344.255C344.487 124.86 344.717 124.888 344.942 124.943C345.592 125.102 346.171 125.48 346.586 126.016C347.001 126.551 347.227 127.214 347.228 127.897V153.581C347.59 153.686 347.953 153.79 348.309 153.901C348.423 153.939 348.531 153.973 348.639 154.006C348.763 154.044 348.888 154.083 349.007 154.122C350.104 154.47 351.176 154.838 352.223 155.226H353.985C354.313 155.226 354.63 155.349 354.877 155.57C355.124 155.792 355.283 156.097 355.326 156.429C355.693 156.579 356.05 156.728 356.401 156.877C357.65 157.407 358.834 157.937 359.92 158.45C361.385 159.135 362.688 159.786 363.78 160.355C364.123 160.534 364.502 160.628 364.888 160.631C365.394 160.629 365.886 160.463 366.293 160.156C366.378 160.092 366.459 160.024 366.536 159.952C366.826 159.675 367.044 159.33 367.173 158.947C367.302 158.564 367.338 158.155 367.277 157.754C366.719 153.418 366.556 149.037 366.79 144.67C366.942 140.998 367.266 137.233 367.688 133.595C367.915 131.624 368.169 129.691 368.434 127.831C368.688 126.053 368.958 124.347 369.223 122.735C369.57 120.691 369.455 118.592 368.885 116.601C368.315 114.609 367.307 112.777 365.936 111.246Z" fill="#6C63FF"/>
<path d="M343.78 111.699C343.502 111.577 343.217 111.476 342.926 111.395C341.485 110.999 339.953 111.145 338.609 111.807C337.266 112.469 336.2 113.602 335.607 115L331.893 123.757L331.428 124.861H344.255C344.487 124.86 344.717 124.888 344.942 124.944L345.374 123.922L347.017 120.047C347.67 118.501 347.696 116.754 347.089 115.189C346.482 113.624 345.292 112.369 343.78 111.699V111.699Z" fill="#6C63FF"/>
<path d="M355.312 102.546C362.645 102.546 368.589 96.4749 368.589 88.9859C368.589 81.4968 362.645 75.4258 355.312 75.4258C347.98 75.4258 342.036 81.4968 342.036 88.9859C342.036 96.4749 347.98 102.546 355.312 102.546Z" fill="#FFB8B8"/>
<path d="M368.433 127.831L360.855 128.041L360.304 133.479L360.179 134.738L348.309 140.182L347.228 140.679V150.357L348.309 150.042L351.725 149.048H351.742L366.79 144.67L366.963 144.62C368.179 144.262 369.249 143.512 370.015 142.483C370.78 141.453 371.2 140.199 371.212 138.906L371.25 132.485L371.282 127.754L368.433 127.831Z" fill="#FFB8B8"/>
<path d="M370.899 117.077C370.849 116.244 370.639 115.43 370.281 114.681C369.923 113.931 369.424 113.261 368.812 112.709C367.577 111.593 365.958 111.024 364.313 111.128C362.667 111.231 361.129 111.998 360.036 113.259C358.944 114.521 358.387 116.174 358.488 117.855L359.315 131.635C359.338 131.998 359.438 132.351 359.609 132.67C359.78 132.989 360.017 133.265 360.304 133.479C360.761 133.827 361.325 133.998 361.894 133.96L367.688 133.595L369.445 133.485C369.765 133.469 370.079 133.387 370.367 133.243C370.655 133.1 370.911 132.899 371.121 132.651C371.167 132.599 371.211 132.543 371.25 132.486C371.594 132.016 371.763 131.437 371.726 130.851L370.899 117.077Z" fill="#6C63FF"/>
<path d="M349.007 154.122H348.31V154.05C347.953 154.1 347.591 154.15 347.229 154.205V155.226H352.223C351.174 154.84 350.102 154.472 349.007 154.122ZM349.007 154.122H348.31V154.05C347.953 154.1 347.591 154.15 347.229 154.205V155.226H352.223C351.174 154.84 350.102 154.472 349.007 154.122ZM353.985 154.122H348.31V127.898C348.308 127 348.02 126.127 347.491 125.41C346.962 124.693 346.219 124.171 345.374 123.923C345.012 123.811 344.635 123.755 344.256 123.757H296.147C295.073 123.758 294.042 124.195 293.282 124.971C292.522 125.747 292.095 126.8 292.093 127.898V154.95C292.094 156.048 292.521 157.101 293.281 157.878C294.041 158.654 295.072 159.091 296.147 159.091H353.985C354.584 159.09 355.162 158.864 355.607 158.455C356.053 158.047 356.336 157.485 356.401 156.877C356.412 156.787 356.418 156.697 356.418 156.607C356.417 155.948 356.16 155.317 355.704 154.851C355.248 154.385 354.63 154.123 353.985 154.122H353.985ZM355.337 156.607C355.337 156.973 355.194 157.324 354.941 157.583C354.687 157.841 354.344 157.987 353.985 157.987H296.147C295.359 157.986 294.603 157.666 294.046 157.097C293.488 156.528 293.175 155.756 293.174 154.95V127.898C293.175 127.092 293.488 126.32 294.046 125.751C294.603 125.182 295.359 124.862 296.147 124.861H344.256C344.487 124.86 344.717 124.888 344.942 124.944C345.593 125.103 346.172 125.48 346.586 126.016C347.001 126.552 347.227 127.215 347.229 127.898V155.226H353.985C354.314 155.227 354.631 155.349 354.877 155.571C355.124 155.792 355.283 156.097 355.326 156.43C355.331 156.491 355.337 156.546 355.337 156.607H355.337ZM349.007 154.122H348.31V154.05C347.953 154.1 347.591 154.15 347.229 154.205V155.226H352.223C351.174 154.84 350.102 154.472 349.007 154.122Z" fill="#3F3D56"/>
<path d="M320.2 144.737C321.991 144.737 323.443 143.254 323.443 141.424C323.443 139.595 321.991 138.112 320.2 138.112C318.409 138.112 316.957 139.595 316.957 141.424C316.957 143.254 318.409 144.737 320.2 144.737Z" fill="#6C63FF"/>
<path d="M352.478 83.607C349.394 86.4207 345.26 89.4407 341.484 87.3793C339.004 86.0258 337.901 83.0575 338.48 80.2476C339.521 75.1947 343.798 72.4645 347.939 70.2575C353.322 67.3884 359.262 64.8863 365.29 65.6322C371.318 66.3781 377.208 71.4656 376.923 77.6606C376.694 82.6425 372.711 87.29 373.972 92.1083C375.241 96.9575 381.004 98.8353 385.912 99.082C390.82 99.3286 396.224 98.9012 400.118 101.964C405.085 105.87 405.005 114.039 401.469 119.327C397.933 124.614 391.962 127.589 386.097 129.851C378.326 132.848 369.785 135.013 361.763 132.81C353.742 130.606 346.72 122.746 347.896 114.348C348.393 110.801 350.221 107.616 351.984 104.518C353.747 101.42 355.521 98.1898 355.891 94.6263C356.2 91.6567 355.276 88.3786 353.132 86.4657C352.744 86.1325 352.469 85.6824 352.347 85.1797C352.225 84.6771 352.262 84.1479 352.453 83.6682L352.478 83.607Z" fill="#2F2E41"/>
<path d="M0 169.877V170.981C0.00155589 172.811 0.713925 174.566 1.98073 175.86C3.24753 177.154 4.96525 177.881 6.75678 177.883H55.4056C57.1974 177.882 58.9156 177.155 60.1826 175.861C61.4496 174.567 62.1617 172.812 62.1624 170.981V169.877C62.1657 168.262 61.6105 166.698 60.5946 165.461C60.2565 165.05 59.8739 164.679 59.4541 164.356C59.4541 164.356 32.7081 163.738 32.7081 162.976H6.75678C4.96553 162.979 3.24836 163.707 1.98175 165C0.715148 166.294 0.00247966 168.048 0 169.877V169.877Z" fill="#3F3D56"/>
<path d="M27.2996 223.984H34.3267L34.3267 177.608H27.2996L27.2996 223.984Z" fill="#3F3D56"/>
<path d="M7.2998 223.733C7.2998 224.508 17.9482 224.033 31.0837 224.033C44.2191 224.033 54.8675 224.508 54.8675 223.733C54.8675 222.957 44.2191 216.808 31.0837 216.808C17.9482 216.808 7.2998 222.957 7.2998 223.733Z" fill="#3F3D56"/>
<path d="M66.5406 218.053H73.1677L76.3201 191.946L66.5396 191.946L66.5406 218.053Z" fill="#A0616A"/>
<path d="M85.9482 224.337L65.1208 224.338L65.1204 216.119L77.9009 216.119C80.0351 216.119 82.0819 216.984 83.5911 218.526C85.1002 220.067 85.9481 222.158 85.9482 224.337L85.9482 224.337Z" fill="#2F2E41"/>
<path d="M76.885 214.276L83.2077 212.249L78.5634 186.375L69.2314 189.366L76.885 214.276Z" fill="#A0616A"/>
<path d="M97.2451 214.337L77.3731 220.707L74.9637 212.865L87.1579 208.956C89.1942 208.304 91.4009 208.504 93.2926 209.513C95.1844 210.522 96.6061 212.258 97.2451 214.337L97.2451 214.337Z" fill="#2F2E41"/>
<path d="M72.4519 202.26L60.329 169.757C57.6093 170.409 34.801 175.564 27.1619 167.257C24.5439 164.41 24.0333 160.285 25.6443 154.996L30.1024 149.274L30.241 149.281C31.9266 149.372 71.5575 151.641 74.2742 163.851C76.5648 174.144 80.7481 193.336 81.9755 198.972C82.0999 199.556 82.0148 200.167 81.7356 200.692C81.4564 201.217 81.0017 201.623 80.4544 201.834L75.5791 203.701C75.3075 203.806 75.0196 203.859 74.7294 203.859C74.2359 203.859 73.754 203.706 73.3474 203.421C72.9408 203.135 72.6285 202.73 72.4519 202.26V202.26Z" fill="#2F2E41"/>
<path d="M65.425 206.124L53.3021 173.622C50.5823 174.274 27.7742 179.429 20.1351 171.122C17.5171 168.274 17.0065 164.149 18.6174 158.861L23.0756 153.139L23.2141 153.146C24.8998 153.237 64.5307 155.506 67.2474 167.715C69.5379 178.009 73.7212 197.2 74.9486 202.837C75.0731 203.421 74.9879 204.031 74.7087 204.557C74.4295 205.082 73.9749 205.487 73.4276 205.699L68.5523 207.566C68.2806 207.671 67.9928 207.724 67.7025 207.724C67.209 207.724 66.7272 207.571 66.3206 207.286C65.9139 207 65.6017 206.595 65.425 206.124V206.124Z" fill="#2F2E41"/>
<path d="M54.5204 143.065C52.7237 143.064 50.9579 142.587 49.396 141.68C47.834 140.773 46.5294 139.467 45.6098 137.891L41.7598 131.229L50.9108 126.121L54.7964 131.562L81.1606 128.725C81.2889 128.488 81.4333 128.26 81.5926 128.044C82.0985 127.364 82.7389 126.8 83.4722 126.39C84.2054 125.98 85.0151 125.732 85.8484 125.662C86.6855 125.589 87.5282 125.699 88.32 125.986C89.1118 126.273 89.8343 126.73 90.4391 127.325C91.4086 128.275 92.0355 129.531 92.218 130.891C92.4004 132.25 92.1279 133.632 91.4444 134.814C91.0168 135.55 90.4418 136.185 89.757 136.678C89.0722 137.171 88.2931 137.511 87.4708 137.675C86.6485 137.84 85.8015 137.825 84.9852 137.631C84.169 137.438 83.402 137.07 82.7344 136.553C82.5797 136.432 82.4313 136.303 82.2897 136.167L57.0384 142.742C56.2155 142.957 55.3696 143.065 54.5204 143.065V143.065Z" fill="#A0616A"/>
<path d="M18.4464 160.577C18.0816 160.308 17.7967 159.942 17.6231 159.518C17.4496 159.094 17.3944 158.63 17.4634 158.176C18.9675 148.049 17.237 133.542 15.5203 123.155C15.1689 121.047 15.3057 118.885 15.9196 116.841C16.5335 114.797 17.6075 112.929 19.0556 111.385C20.5037 109.842 22.2856 108.666 24.2586 107.952C26.2316 107.239 28.3408 107.007 30.4173 107.276C32.2239 107.519 34.0136 107.88 35.7756 108.354V108.354C38.7025 109.107 41.2914 110.855 43.1169 113.31C44.9423 115.765 45.8956 118.781 45.82 121.863C45.5633 131.886 47.5559 144.392 48.4245 149.303C48.4838 149.64 48.4744 149.986 48.3968 150.32C48.3193 150.653 48.1753 150.967 47.9738 151.241C47.7763 151.512 47.5254 151.739 47.2372 151.905C46.9491 152.071 46.63 152.174 46.3006 152.207C36.6746 153.211 26.2939 158.005 20.9629 160.774C20.6203 160.955 20.2406 161.049 19.8551 161.051C19.3483 161.049 18.855 160.883 18.4464 160.577Z" fill="#CCCCCC"/>
<path d="M44.4304 134.456C44.1329 134.336 43.8615 134.158 43.632 133.931C43.4025 133.703 43.2194 133.432 43.0933 133.132L37.7249 120.466C37.3999 119.7 37.2257 118.877 37.2123 118.043C37.1989 117.209 37.3465 116.38 37.6468 115.604C37.9471 114.829 38.3941 114.121 38.9624 113.522C39.5306 112.923 40.2089 112.444 40.9584 112.112C41.7079 111.781 42.5141 111.604 43.3307 111.591C44.1474 111.578 44.9585 111.729 45.7178 112.036C46.4771 112.344 47.1696 112.801 47.7558 113.382C48.3421 113.963 48.8104 114.656 49.1342 115.422L54.5027 128.088C54.7581 128.693 54.7682 129.376 54.5309 129.989C54.2936 130.601 53.8282 131.093 53.2368 131.355L46.2919 134.425C45.999 134.556 45.6837 134.626 45.3641 134.631C45.0446 134.636 44.7272 134.577 44.4304 134.456H44.4304Z" fill="#CCCCCC"/>
<path d="M29.4291 102.966C36.7614 102.966 42.7054 96.8953 42.7054 89.4063C42.7054 81.9172 36.7614 75.8462 29.4291 75.8462C22.0968 75.8462 16.1528 81.9172 16.1528 89.4063C16.1528 96.8953 22.0968 102.966 29.4291 102.966Z" fill="#A0616A"/>
<path d="M21.4061 101.454C21.218 101.675 20.9883 101.856 20.7306 101.986C20.4728 102.115 20.1923 102.191 19.9055 102.208C19.6187 102.224 19.3316 102.182 19.061 102.084C18.7905 101.985 18.542 101.832 18.3303 101.634C15.3699 99.1865 13.022 96.0549 11.4804 92.4976C9.7544 88.2956 9.50145 83.1677 11.4658 79.229C13.1263 75.8994 16.1072 73.78 19.0831 72.0477C20.2239 71.3136 21.4741 70.7739 22.7846 70.4498C23.4466 70.2964 24.1326 70.2862 24.7986 70.42C25.4647 70.5537 26.0959 70.8285 26.6516 71.2265C27.2414 71.6845 27.6978 72.298 27.9718 73.001C28.2459 73.704 28.3274 74.4699 28.2073 75.2166C29.5686 73.3851 31.4037 71.9784 33.5058 71.1551C34.7956 70.5881 36.2366 70.4895 37.5889 70.8758C39.5 71.5273 40.9146 73.4984 41.7018 75.6161C42.3384 77.2374 42.5716 78.9947 42.3804 80.7306C42.2971 81.5595 42.0495 82.3624 41.6528 83.0905C41.2561 83.8186 40.7185 84.4567 40.0728 84.966C38.5139 86.0646 36.5056 85.953 34.6927 85.4668C32.8798 84.9806 31.1203 84.1561 29.2758 83.9263C27.4313 83.6964 25.387 84.1948 24.288 85.8751C23.5141 87.0585 23.3316 88.6173 23.1737 90.1033L22.3524 97.8319C22.2944 98.9376 22.0611 100.026 21.6618 101.056C21.5942 101.199 21.5082 101.333 21.4061 101.454V101.454Z" fill="#2F2E41"/>
<path d="M69.4263 184.97H47.8735C47.5243 184.971 47.1794 184.89 46.8651 184.735C46.5508 184.579 46.2754 184.352 46.0599 184.072C45.8396 183.787 45.6858 183.455 45.6102 183.101C45.5346 182.746 45.5392 182.379 45.6236 182.026C47.6396 173.401 47.6396 164.413 45.6235 155.788C45.5391 155.436 45.5346 155.068 45.6102 154.714C45.6858 154.359 45.8396 154.027 46.0599 153.743C46.2754 153.462 46.5508 153.235 46.8651 153.079C47.1794 152.924 47.5243 152.844 47.8735 152.845H69.4263C69.977 152.846 70.5095 153.047 70.9289 153.411C71.3483 153.776 71.6275 154.28 71.7166 154.835C73.1224 164.162 73.1224 173.653 71.7166 182.979C71.6275 183.534 71.3483 184.039 70.9289 184.403C70.5095 184.768 69.977 184.968 69.4263 184.97V184.97Z" fill="#CCCCCC"/>
<path d="M52.8838 164.812V164.165C52.8843 163.726 53.0553 163.305 53.3593 162.994C53.6633 162.684 54.0755 162.509 54.5054 162.509H65.8155C66.2454 162.509 66.6576 162.684 66.9616 162.994C67.2657 163.305 67.4367 163.726 67.4371 164.165V164.812C67.4367 165.251 67.2657 165.672 66.9616 165.983C66.6576 166.293 66.2454 166.468 65.8155 166.468H54.5054C54.0755 166.468 53.6633 166.293 53.3593 165.983C53.0553 165.672 52.8843 165.251 52.8838 164.812V164.812Z" fill="white"/>
<path d="M52.8838 171.627V170.98C52.8843 170.541 53.0553 170.12 53.3593 169.809C53.6633 169.499 54.0755 169.324 54.5054 169.324H65.8155C66.2454 169.324 66.6576 169.499 66.9616 169.809C67.2657 170.12 67.4367 170.541 67.4371 170.98V171.627C67.4367 172.066 67.2657 172.487 66.9616 172.798C66.6576 173.108 66.2454 173.283 65.8155 173.284H54.5054C54.0755 173.283 53.6633 173.108 53.3593 172.798C53.0553 172.487 52.8843 172.066 52.8838 171.627Z" fill="white"/>
<path d="M59.8368 145.079C59.6129 144.789 59.4566 144.452 59.3797 144.091C59.3028 143.731 59.3074 143.358 59.3932 142.999C61.4425 134.233 61.4424 125.096 59.393 116.33C59.3073 115.972 59.3028 115.598 59.3797 115.238C59.4566 114.878 59.6129 114.54 59.8368 114.251C60.0559 113.965 60.3359 113.735 60.6553 113.577C60.9748 113.419 61.3253 113.337 61.6803 113.338H83.587C84.1468 113.339 84.688 113.543 85.1143 113.914C85.5406 114.285 85.8243 114.798 85.9149 115.362C87.3439 124.841 87.3439 134.488 85.9149 143.968C85.8243 144.532 85.5406 145.045 85.1143 145.415C84.688 145.786 84.1468 145.99 83.587 145.991H61.6802C61.3253 145.992 60.9747 145.91 60.6553 145.752C60.3358 145.594 60.0559 145.364 59.8368 145.079Z" fill="#6C63FF"/>
<path d="M79.3596 125.386H67.8194C67.3894 125.386 66.9772 125.211 66.6732 124.9C66.3692 124.59 66.1982 124.169 66.1978 123.73V123.026C66.1982 122.587 66.3692 122.166 66.6732 121.856C66.9772 121.545 67.3894 121.371 67.8194 121.37H79.3596C79.7896 121.371 80.2018 121.545 80.5058 121.856C80.8098 122.166 80.9808 122.587 80.9812 123.026V123.73C80.9808 124.169 80.8098 124.59 80.5058 124.9C80.2017 125.211 79.7896 125.386 79.3596 125.386V125.386Z" fill="white"/>
<path d="M79.3596 132.314H67.8194C67.3894 132.313 66.9772 132.139 66.6732 131.828C66.3692 131.518 66.1982 131.097 66.1978 130.658V129.954C66.1982 129.515 66.3692 129.094 66.6732 128.783C66.9772 128.473 67.3894 128.298 67.8194 128.298H79.3596C79.7896 128.298 80.2018 128.473 80.5058 128.783C80.8098 129.094 80.9808 129.515 80.9812 129.954V130.658C80.9808 131.097 80.8098 131.518 80.5058 131.828C80.2017 132.139 79.7896 132.313 79.3596 132.314V132.314Z" fill="white"/>
<path d="M49.7855 157.224C48.9961 156.942 48.2737 156.494 47.6652 155.908C47.0567 155.322 46.5757 154.612 46.2536 153.824C46.1793 153.64 46.1145 153.453 46.0595 153.262L17.7773 145.039C16.5619 144.681 15.4921 143.932 14.7266 142.903C13.9612 141.874 13.5408 140.621 13.528 139.329L13.459 128.176L23.8838 128.461L24.5632 135.16L48.7474 146.25C48.9751 146.111 49.212 145.988 49.4564 145.883H49.4565C50.3473 145.502 51.3157 145.347 52.278 145.434C53.2402 145.52 54.1675 145.844 54.9797 146.378C55.7918 146.912 56.4645 147.64 56.9396 148.499C57.4147 149.358 57.6779 150.323 57.7065 151.309C57.7351 152.295 57.5282 153.274 57.1038 154.16C56.6793 155.046 56.0501 155.813 55.2703 156.396C54.4905 156.978 53.5837 157.358 52.6281 157.502C51.6725 157.646 50.6969 157.551 49.7855 157.224V157.224Z" fill="#A0616A"/>
<path d="M13.6211 133.072C13.4088 132.828 13.2459 132.543 13.142 132.235C13.0381 131.926 12.9952 131.599 13.0157 131.273L13.8449 117.497C13.8937 116.664 14.1029 115.849 14.4605 115.098C14.8181 114.348 15.317 113.677 15.9288 113.123C16.5405 112.57 17.2532 112.145 18.0258 111.873C18.7985 111.602 19.616 111.488 20.4317 111.539C21.2473 111.591 22.0451 111.806 22.7793 112.172C23.5135 112.539 24.1697 113.049 24.7105 113.675C25.2512 114.301 25.6659 115.029 25.9307 115.819C26.1954 116.609 26.3052 117.444 26.2536 118.277L25.4246 132.053C25.3842 132.711 25.0902 133.325 24.6071 133.761C24.124 134.197 23.4912 134.42 22.8476 134.38L15.2942 133.906C14.9752 133.887 14.663 133.803 14.3758 133.66C14.0886 133.517 13.8321 133.317 13.6211 133.072H13.6211Z" fill="#CCCCCC"/>
<path d="M135.185 59.0745H90.861C89.5712 59.073 88.3346 58.549 87.4226 57.6175C86.5106 56.6859 85.9976 55.423 85.9961 54.1056V4.96888C85.9976 3.65151 86.5106 2.38854 87.4226 1.45702C88.3346 0.525504 89.5712 0.00150507 90.861 0H135.185C136.475 0.00150653 137.712 0.525505 138.624 1.45702C139.536 2.38854 140.049 3.65151 140.05 4.96888V54.1056C140.049 55.423 139.536 56.6859 138.624 57.6175C137.712 58.549 136.475 59.073 135.185 59.0745V59.0745ZM90.861 1.1042C89.8578 1.10534 88.896 1.51288 88.1867 2.2374C87.4773 2.96193 87.0783 3.94425 87.0772 4.96888V54.1056C87.0783 55.1302 87.4773 56.1125 88.1867 56.8371C88.896 57.5616 89.8578 57.9691 90.861 57.9703H135.185C136.189 57.9691 137.15 57.5616 137.86 56.8371C138.569 56.1125 138.968 55.1302 138.969 54.1056V4.96888C138.968 3.94425 138.569 2.96192 137.86 2.2374C137.15 1.51288 136.189 1.10534 135.185 1.1042H90.861Z" fill="#3F3D56"/>
<path d="M216.267 59.0745H171.942C170.652 59.073 169.416 58.549 168.504 57.6175C167.592 56.6859 167.079 55.423 167.077 54.1056V4.96888C167.079 3.65151 167.592 2.38854 168.504 1.45702C169.416 0.525504 170.652 0.00150507 171.942 0H216.267C217.556 0.00150653 218.793 0.525505 219.705 1.45702C220.617 2.38854 221.13 3.65151 221.131 4.96888V54.1056C221.13 55.423 220.617 56.6859 219.705 57.6175C218.793 58.549 217.556 59.073 216.267 59.0745V59.0745ZM171.942 1.1042C170.939 1.10534 169.977 1.51288 169.268 2.2374C168.558 2.96193 168.159 3.94425 168.158 4.96888V54.1056C168.159 55.1302 168.558 56.1125 169.268 56.8371C169.977 57.5616 170.939 57.9691 171.942 57.9703H216.267C217.27 57.9691 218.231 57.5616 218.941 56.8371C219.65 56.1125 220.049 55.1302 220.05 54.1056V4.96888C220.049 3.94425 219.65 2.96192 218.941 2.2374C218.231 1.51288 217.27 1.10534 216.267 1.1042H171.942Z" fill="#3F3D56"/>
<path d="M99.7875 20.4277H95.4632C94.8183 20.4269 94.2 20.1649 93.744 19.6992C93.288 19.2334 93.0315 18.6019 93.0308 17.9432V13.5264C93.0315 12.8677 93.288 12.2362 93.744 11.7705C94.2 11.3047 94.8183 11.0427 95.4632 11.042H99.7875C100.432 11.0427 101.051 11.3047 101.507 11.7705C101.963 12.2362 102.219 12.8677 102.22 13.5264V17.9432C102.219 18.6019 101.963 19.2334 101.507 19.6992C101.051 20.1649 100.432 20.4269 99.7875 20.4277V20.4277Z" fill="#6C63FF"/>
<path d="M99.7875 34.2299H95.4632C94.8183 34.2292 94.2 33.9672 93.744 33.5014C93.288 33.0356 93.0315 32.4042 93.0308 31.7455V27.3287C93.0315 26.67 93.288 26.0385 93.744 25.5727C94.2 25.107 94.8183 24.845 95.4632 24.8442H99.7875C100.432 24.845 101.051 25.107 101.507 25.5727C101.963 26.0385 102.219 26.67 102.22 27.3287V31.7455C102.219 32.4042 101.963 33.0356 101.507 33.5014C101.051 33.9672 100.432 34.2292 99.7875 34.2299V34.2299Z" fill="#CCCCCC"/>
<path d="M131.394 17.743H111.205C110.775 17.7425 110.363 17.5678 110.058 17.2573C109.754 16.9468 109.583 16.5258 109.583 16.0867V15.3833C109.583 14.9442 109.754 14.5232 110.058 14.2127C110.363 13.9022 110.775 13.7275 111.205 13.7271H131.394C131.823 13.7275 132.236 13.9022 132.54 14.2127C132.844 14.5232 133.015 14.9442 133.015 15.3833V16.0867C133.015 16.5258 132.844 16.9468 132.54 17.2573C132.236 17.5678 131.823 17.7425 131.394 17.743V17.743Z" fill="#6C63FF"/>
<path d="M181.242 19.5619H176.917C176.272 19.5612 175.654 19.2992 175.198 18.8334C174.742 18.3677 174.486 17.7362 174.485 17.0775V12.6607C174.486 12.002 174.742 11.3705 175.198 10.9048C175.654 10.439 176.272 10.177 176.917 10.1763H181.242C181.887 10.177 182.505 10.439 182.961 10.9048C183.417 11.3705 183.673 12.002 183.674 12.6607V17.0775C183.673 17.7362 183.417 18.3677 182.961 18.8334C182.505 19.2992 181.887 19.5612 181.242 19.5619V19.5619Z" fill="#CCCCCC"/>
<path d="M212.848 16.8768H192.659C192.229 16.8763 191.817 16.7016 191.513 16.3911C191.209 16.0806 191.038 15.6596 191.037 15.2205V14.5171C191.038 14.078 191.209 13.657 191.513 13.3465C191.817 13.036 192.229 12.8613 192.659 12.8608H212.848C213.278 12.8613 213.69 13.036 213.994 13.3465C214.298 13.657 214.469 14.078 214.469 14.5171V15.2205C214.469 15.6596 214.298 16.0806 213.994 16.3911C213.69 16.7016 213.278 16.8763 212.848 16.8768Z" fill="#CCCCCC"/>
<path d="M212.848 30.1268H175.361C174.931 30.1263 174.519 29.9516 174.215 29.6411C173.911 29.3306 173.74 28.9096 173.74 28.4705V27.7671C173.74 27.328 173.911 26.907 174.215 26.5965C174.519 26.286 174.931 26.1113 175.361 26.1108H212.848C213.278 26.1113 213.69 26.286 213.994 26.5965C214.298 26.907 214.469 27.328 214.469 27.7671V28.4705C214.469 28.9096 214.298 29.3306 213.994 29.6411C213.69 29.9516 213.278 30.1263 212.848 30.1268V30.1268Z" fill="#6C63FF"/>
<path d="M212.848 39.513H175.361C174.931 39.5125 174.519 39.3379 174.215 39.0273C173.911 38.7168 173.74 38.2958 173.74 37.8567V37.1534C173.74 36.7142 173.911 36.2932 174.215 35.9827C174.519 35.6722 174.931 35.4976 175.361 35.4971H212.848C213.278 35.4976 213.69 35.6722 213.994 35.9827C214.298 36.2932 214.469 36.7142 214.469 37.1534V37.8567C214.469 38.2958 214.298 38.7168 213.994 39.0273C213.69 39.3379 213.278 39.5125 212.848 39.513V39.513Z" fill="#CCCCCC"/>
<path d="M212.848 48.8982H175.361C174.931 48.8978 174.519 48.7231 174.215 48.4126C173.911 48.1021 173.74 47.6811 173.74 47.2419V46.5386C173.74 46.0995 173.911 45.6785 174.215 45.368C174.519 45.0575 174.931 44.8828 175.361 44.8823H212.848C213.278 44.8828 213.69 45.0575 213.994 45.368C214.298 45.6785 214.469 46.0995 214.469 46.5386V47.2419C214.469 47.6811 214.298 48.1021 213.994 48.4126C213.69 48.7231 213.278 48.8978 212.848 48.8982V48.8982Z" fill="#CCCCCC"/>
<path d="M297.348 59.0745H253.024C251.734 59.073 250.497 58.549 249.585 57.6175C248.673 56.6859 248.16 55.423 248.159 54.1056V4.96888C248.16 3.65151 248.673 2.38854 249.585 1.45702C250.497 0.525504 251.734 0.00150507 253.024 0H297.348C298.638 0.00150653 299.874 0.525505 300.786 1.45702C301.698 2.38854 302.211 3.65151 302.213 4.96888V54.1056C302.211 55.423 301.698 56.6859 300.786 57.6175C299.874 58.549 298.638 59.073 297.348 59.0745V59.0745ZM253.024 1.1042C252.02 1.10534 251.059 1.51288 250.349 2.2374C249.64 2.96193 249.241 3.94425 249.24 4.96888V54.1056C249.241 55.1302 249.64 56.1125 250.349 56.8371C251.059 57.5616 252.02 57.9691 253.024 57.9703H297.348C298.351 57.9691 299.313 57.5616 300.022 56.8371C300.732 56.1125 301.131 55.1302 301.132 54.1056V4.96888C301.131 3.94425 300.732 2.96192 300.022 2.2374C299.313 1.51288 298.351 1.10534 297.348 1.1042H253.024Z" fill="#3F3D56"/>
<path d="M293.929 16.8768H273.74C273.31 16.8763 272.898 16.7016 272.594 16.3911C272.29 16.0806 272.119 15.6596 272.118 15.2205V14.5171C272.119 14.078 272.29 13.657 272.594 13.3465C272.898 13.036 273.31 12.8613 273.74 12.8608H293.929C294.359 12.8613 294.771 13.036 295.075 13.3465C295.379 13.657 295.55 14.078 295.55 14.5171V15.2205C295.55 15.6596 295.379 16.0806 295.075 16.3911C294.771 16.7016 294.359 16.8763 293.929 16.8768V16.8768Z" fill="#CCCCCC"/>
<path d="M293.929 30.1268H256.443C256.013 30.1263 255.601 29.9516 255.297 29.6411C254.993 29.3306 254.822 28.9096 254.821 28.4705V27.7671C254.822 27.328 254.993 26.907 255.297 26.5965C255.601 26.286 256.013 26.1113 256.443 26.1108H293.929C294.359 26.1113 294.771 26.286 295.075 26.5965C295.379 26.907 295.55 27.328 295.551 27.7671V28.4705C295.55 28.9096 295.379 29.3306 295.075 29.6411C294.771 29.9516 294.359 30.1263 293.929 30.1268Z" fill="#CCCCCC"/>
<path d="M293.929 39.513H256.443C256.013 39.5125 255.601 39.3379 255.297 39.0273C254.993 38.7168 254.822 38.2958 254.821 37.8567V37.1534C254.822 36.7142 254.993 36.2932 255.297 35.9827C255.601 35.6722 256.013 35.4976 256.443 35.4971H293.929C294.359 35.4976 294.771 35.6722 295.075 35.9827C295.379 36.2932 295.55 36.7142 295.551 37.1534V37.8567C295.55 38.2958 295.379 38.7168 295.075 39.0273C294.771 39.3379 294.359 39.5125 293.929 39.513Z" fill="#CCCCCC"/>
<path d="M293.929 48.8982H256.443C256.013 48.8978 255.601 48.7231 255.297 48.4126C254.993 48.1021 254.822 47.6811 254.821 47.2419V46.5386C254.822 46.0995 254.993 45.6785 255.297 45.368C255.601 45.0575 256.013 44.8828 256.443 44.8823H293.929C294.359 44.8828 294.771 45.0575 295.075 45.368C295.379 45.6785 295.55 46.0995 295.551 46.5386V47.2419C295.55 47.6811 295.379 48.1021 295.075 48.4126C294.771 48.7231 294.359 48.8978 293.929 48.8982Z" fill="#CCCCCC"/>
<path d="M131.394 31.5452H111.205C110.775 31.5447 110.363 31.3701 110.058 31.0596C109.754 30.7491 109.583 30.3281 109.583 29.8889V29.1856C109.583 28.7465 109.754 28.3255 110.058 28.0149C110.363 27.7044 110.775 27.5298 111.205 27.5293H131.394C131.823 27.5298 132.236 27.7044 132.54 28.0149C132.844 28.3255 133.015 28.7465 133.015 29.1856V29.8889C133.015 30.3281 132.844 30.7491 132.54 31.0596C132.236 31.3701 131.823 31.5447 131.394 31.5452Z" fill="#CCCCCC"/>
<path d="M99.7875 48.0321H95.4632C94.8183 48.0314 94.2 47.7694 93.744 47.3037C93.288 46.8379 93.0315 46.2064 93.0308 45.5477V41.1309C93.0315 40.4722 93.288 39.8407 93.744 39.375C94.2 38.9092 94.8183 38.6472 95.4632 38.6465H99.7875C100.432 38.6472 101.051 38.9092 101.507 39.375C101.963 39.8407 102.219 40.4722 102.22 41.1309V45.5477C102.219 46.2064 101.963 46.8379 101.507 47.3037C101.051 47.7694 100.432 48.0314 99.7875 48.0321V48.0321Z" fill="#CCCCCC"/>
<path d="M131.394 45.348H111.205C110.775 45.3475 110.363 45.1728 110.058 44.8623C109.754 44.5518 109.583 44.1308 109.583 43.6917V42.9883C109.583 42.5492 109.754 42.1282 110.058 41.8177C110.363 41.5072 110.775 41.3325 111.205 41.332H131.394C131.823 41.3325 132.236 41.5072 132.54 41.8177C132.844 42.1282 133.015 42.5492 133.015 42.9883V43.6917C133.015 44.1308 132.844 44.5518 132.54 44.8623C132.236 45.1728 131.823 45.3475 131.394 45.348Z" fill="#CCCCCC"/>
<path d="M264.913 14.3543C264.913 14.3416 264.915 14.3293 264.915 14.3165C264.915 13.664 264.789 13.0179 264.545 12.415C264.3 11.8122 263.942 11.2644 263.49 10.803C263.039 10.3416 262.502 9.97558 261.912 9.72588C261.322 9.47617 260.689 9.34765 260.05 9.34766V14.3543H264.913Z" fill="#6C63FF"/>
<path d="M259.51 14.9066V9.8999C258.549 9.89956 257.61 10.1897 256.811 10.7338C256.011 11.278 255.387 12.0516 255.018 12.9573C254.648 13.8631 254.55 14.8602 254.734 15.8232C254.919 16.7861 255.378 17.6717 256.055 18.3683C256.731 19.0649 257.595 19.5413 258.536 19.7374C259.477 19.9335 260.454 19.8406 261.344 19.4704C262.234 19.1001 262.996 18.4692 263.535 17.657C264.074 16.8448 264.366 15.8878 264.373 14.9066H259.51Z" fill="#CCCCCC"/>
</svg>
